solid OpenSCAD_Model
  facet normal -1 0 0
    outer loop
      vertex 10 10 0
      vertex 10 30 30
      vertex 10 30 0
    endloop
  endfacet
  facet normal -1 -0 0
    outer loop
      vertex 10 30 30
      vertex 10 10 0
      vertex 10 10 30
    endloop
  endfacet
  facet normal -0 0 1
    outer loop
      vertex 10 30 30
      vertex 20 10 30
      vertex 20 30 30
    endloop
  endfacet
  facet normal 0 0 1
    outer loop
      vertex 20 10 30
      vertex 10 30 30
      vertex 10 10 30
    endloop
  endfacet
  facet normal 1 -0 0
    outer loop
      vertex 20 10 30
      vertex 20 30 0
      vertex 20 30 30
    endloop
  endfacet
  facet normal 1 0 0
    outer loop
      vertex 20 30 0
      vertex 20 10 30
      vertex 20 10 0
    endloop
  endfacet
  facet normal 0 1 -0
    outer loop
      vertex 20 30 0
      vertex 10 30 30
      vertex 20 30 30
    endloop
  endfacet
  facet normal 0 1 0
    outer loop
      vertex 10 30 30
      vertex 20 30 0
      vertex 10 30 0
    endloop
  endfacet
  facet normal 0 0 -1
    outer loop
      vertex 10 10 0
      vertex 20 30 0
      vertex 20 10 0
    endloop
  endfacet
  facet normal -0 0 -1
    outer loop
      vertex 20 30 0
      vertex 10 10 0
      vertex 10 30 0
    endloop
  endfacet
  facet normal 0 -1 0
    outer loop
      vertex 10 10 0
      vertex 20 10 30
      vertex 10 10 30
    endloop
  endfacet
  facet normal 0 -1 -0
    outer loop
      vertex 20 10 30
      vertex 10 10 0
      vertex 20 10 0
    endloop
  endfacet
  facet normal -0 0 1
    outer loop
      vertex -30 -10 30
      vertex -10 -20 30
      vertex -10 -10 30
    endloop
  endfacet
  facet normal 0 0 1
    outer loop
      vertex -10 -20 30
      vertex -30 -10 30
      vertex -30 -20 30
    endloop
  endfacet
  facet normal 0 1 -0
    outer loop
      vertex -10 -10 0
      vertex -30 -10 30
      vertex -10 -10 30
    endloop
  endfacet
  facet normal 0 1 0
    outer loop
      vertex -30 -10 30
      vertex -10 -10 0
      vertex -30 -10 0
    endloop
  endfacet
  facet normal 0 -1 0
    outer loop
      vertex -30 -20 0
      vertex -10 -20 30
      vertex -30 -20 30
    endloop
  endfacet
  facet normal 0 -1 -0
    outer loop
      vertex -10 -20 30
      vertex -30 -20 0
      vertex -10 -20 0
    endloop
  endfacet
  facet normal -1 0 0
    outer loop
      vertex -30 -20 0
      vertex -30 -10 30
      vertex -30 -10 0
    endloop
  endfacet
  facet normal -1 -0 0
    outer loop
      vertex -30 -10 30
      vertex -30 -20 0
      vertex -30 -20 30
    endloop
  endfacet
  facet normal 0 0 -1
    outer loop
      vertex -30 -20 0
      vertex -10 -10 0
      vertex -10 -20 0
    endloop
  endfacet
  facet normal -0 0 -1
    outer loop
      vertex -10 -10 0
      vertex -30 -20 0
      vertex -30 -10 0
    endloop
  endfacet
  facet normal 1 -0 0
    outer loop
      vertex -10 -20 30
      vertex -10 -10 0
      vertex -10 -10 30
    endloop
  endfacet
  facet normal 1 0 0
    outer loop
      vertex -10 -10 0
      vertex -10 -20 30
      vertex -10 -20 0
    endloop
  endfacet
endsolid OpenSCAD_Model
