solid OpenSCAD_Model
  facet normal -1 0 0
    outer loop
      vertex -11 -11 -10
      vertex -11 11 10
      vertex -11 11 -10
    endloop
  endfacet
  facet normal -1 -0 0
    outer loop
      vertex -11 11 10
      vertex -11 -11 -10
      vertex -11 -11 10
    endloop
  endfacet
  facet normal 0 0 1
    outer loop
      vertex 11 11 10
      vertex 10 0 10
      vertex 11 -11 10
    endloop
  endfacet
  facet normal 0 0 1
    outer loop
      vertex 11 11 10
      vertex 9.92115 1.25333 10
      vertex 10 0 10
    endloop
  endfacet
  facet normal 0 0 1
    outer loop
      vertex 11 11 10
      vertex 9.68583 2.4869 10
      vertex 9.92115 1.25333 10
    endloop
  endfacet
  facet normal 0 0 1
    outer loop
      vertex 11 11 10
      vertex 9.29776 3.68124 10
      vertex 9.68583 2.4869 10
    endloop
  endfacet
  facet normal 0 0 1
    outer loop
      vertex 11 11 10
      vertex 8.76307 4.81754 10
      vertex 9.29776 3.68124 10
    endloop
  endfacet
  facet normal 0 0 1
    outer loop
      vertex 11 11 10
      vertex 8.09017 5.87785 10
      vertex 8.76307 4.81754 10
    endloop
  endfacet
  facet normal 0 0 1
    outer loop
      vertex 11 11 10
      vertex 7.28969 6.84547 10
      vertex 8.09017 5.87785 10
    endloop
  endfacet
  facet normal 0 0 1
    outer loop
      vertex 11 11 10
      vertex 6.37424 7.70513 10
      vertex 7.28969 6.84547 10
    endloop
  endfacet
  facet normal 0 0 1
    outer loop
      vertex 11 11 10
      vertex 5.35827 8.44328 10
      vertex 6.37424 7.70513 10
    endloop
  endfacet
  facet normal 0 0 1
    outer loop
      vertex 11 11 10
      vertex 4.25779 9.04827 10
      vertex 5.35827 8.44328 10
    endloop
  endfacet
  facet normal 0 0 1
    outer loop
      vertex 11 11 10
      vertex 3.09017 9.51056 10
      vertex 4.25779 9.04827 10
    endloop
  endfacet
  facet normal 0 0 1
    outer loop
      vertex 11 11 10
      vertex 1.87381 9.82287 10
      vertex 3.09017 9.51056 10
    endloop
  endfacet
  facet normal 0 0 1
    outer loop
      vertex 11 11 10
      vertex 0.627905 9.98027 10
      vertex 1.87381 9.82287 10
    endloop
  endfacet
  facet normal 0 0 1
    outer loop
      vertex 11 11 10
      vertex -0.627905 9.98027 10
      vertex 0.627905 9.98027 10
    endloop
  endfacet
  facet normal 0 0 1
    outer loop
      vertex -9.92115 1.25333 10
      vertex -11 11 10
      vertex -10 0 10
    endloop
  endfacet
  facet normal 0 0 1
    outer loop
      vertex -9.68583 2.4869 10
      vertex -11 11 10
      vertex -9.92115 1.25333 10
    endloop
  endfacet
  facet normal 0 0 1
    outer loop
      vertex -9.29776 3.68124 10
      vertex -11 11 10
      vertex -9.68583 2.4869 10
    endloop
  endfacet
  facet normal 0 0 1
    outer loop
      vertex -8.76307 4.81754 10
      vertex -11 11 10
      vertex -9.29776 3.68124 10
    endloop
  endfacet
  facet normal 0 0 1
    outer loop
      vertex -8.09017 5.87785 10
      vertex -11 11 10
      vertex -8.76307 4.81754 10
    endloop
  endfacet
  facet normal 0 0 1
    outer loop
      vertex -7.28969 6.84547 10
      vertex -11 11 10
      vertex -8.09017 5.87785 10
    endloop
  endfacet
  facet normal 0 0 1
    outer loop
      vertex -6.37424 7.70513 10
      vertex -11 11 10
      vertex -7.28969 6.84547 10
    endloop
  endfacet
  facet normal 0 0 1
    outer loop
      vertex -5.35827 8.44328 10
      vertex -11 11 10
      vertex -6.37424 7.70513 10
    endloop
  endfacet
  facet normal 0 0 1
    outer loop
      vertex -4.25779 9.04827 10
      vertex -11 11 10
      vertex -5.35827 8.44328 10
    endloop
  endfacet
  facet normal 0 0 1
    outer loop
      vertex -3.09017 9.51056 10
      vertex -11 11 10
      vertex -4.25779 9.04827 10
    endloop
  endfacet
  facet normal 0 0 1
    outer loop
      vertex -1.87381 9.82287 10
      vertex -11 11 10
      vertex -3.09017 9.51056 10
    endloop
  endfacet
  facet normal 0 0 1
    outer loop
      vertex -0.627905 9.98027 10
      vertex -11 11 10
      vertex -1.87381 9.82287 10
    endloop
  endfacet
  facet normal -0 0 1
    outer loop
      vertex -11 11 10
      vertex -0.627905 9.98027 10
      vertex 11 11 10
    endloop
  endfacet
  facet normal -0 0 1
    outer loop
      vertex 9.92115 -1.25333 10
      vertex 11 -11 10
      vertex 10 0 10
    endloop
  endfacet
  facet normal -0 0 1
    outer loop
      vertex 9.68583 -2.4869 10
      vertex 11 -11 10
      vertex 9.92115 -1.25333 10
    endloop
  endfacet
  facet normal -0 0 1
    outer loop
      vertex 9.29776 -3.68124 10
      vertex 11 -11 10
      vertex 9.68583 -2.4869 10
    endloop
  endfacet
  facet normal -0 0 1
    outer loop
      vertex 8.76307 -4.81754 10
      vertex 11 -11 10
      vertex 9.29776 -3.68124 10
    endloop
  endfacet
  facet normal -0 0 1
    outer loop
      vertex 8.09017 -5.87785 10
      vertex 11 -11 10
      vertex 8.76307 -4.81754 10
    endloop
  endfacet
  facet normal -0 0 1
    outer loop
      vertex 7.28969 -6.84547 10
      vertex 11 -11 10
      vertex 8.09017 -5.87785 10
    endloop
  endfacet
  facet normal -0 0 1
    outer loop
      vertex 6.37424 -7.70513 10
      vertex 11 -11 10
      vertex 7.28969 -6.84547 10
    endloop
  endfacet
  facet normal -0 0 1
    outer loop
      vertex 5.35827 -8.44328 10
      vertex 11 -11 10
      vertex 6.37424 -7.70513 10
    endloop
  endfacet
  facet normal -0 0 1
    outer loop
      vertex 4.25779 -9.04827 10
      vertex 11 -11 10
      vertex 5.35827 -8.44328 10
    endloop
  endfacet
  facet normal -0 0 1
    outer loop
      vertex 3.09017 -9.51056 10
      vertex 11 -11 10
      vertex 4.25779 -9.04827 10
    endloop
  endfacet
  facet normal -0 0 1
    outer loop
      vertex 1.87381 -9.82287 10
      vertex 11 -11 10
      vertex 3.09017 -9.51056 10
    endloop
  endfacet
  facet normal -0 0 1
    outer loop
      vertex 0.627905 -9.98027 10
      vertex 11 -11 10
      vertex 1.87381 -9.82287 10
    endloop
  endfacet
  facet normal -0 0 1
    outer loop
      vertex -0.627905 -9.98027 10
      vertex 11 -11 10
      vertex 0.627905 -9.98027 10
    endloop
  endfacet
  facet normal 0 0 1
    outer loop
      vertex -11 -11 10
      vertex -10 0 10
      vertex -11 11 10
    endloop
  endfacet
  facet normal 0 0 1
    outer loop
      vertex -0.627905 -9.98027 10
      vertex -11 -11 10
      vertex 11 -11 10
    endloop
  endfacet
  facet normal 0 0 1
    outer loop
      vertex -1.87381 -9.82287 10
      vertex -11 -11 10
      vertex -0.627905 -9.98027 10
    endloop
  endfacet
  facet normal 0 0 1
    outer loop
      vertex -3.09017 -9.51056 10
      vertex -11 -11 10
      vertex -1.87381 -9.82287 10
    endloop
  endfacet
  facet normal 0 0 1
    outer loop
      vertex -4.25779 -9.04827 10
      vertex -11 -11 10
      vertex -3.09017 -9.51056 10
    endloop
  endfacet
  facet normal 0 0 1
    outer loop
      vertex -5.35827 -8.44328 10
      vertex -11 -11 10
      vertex -4.25779 -9.04827 10
    endloop
  endfacet
  facet normal 0 0 1
    outer loop
      vertex -6.37424 -7.70513 10
      vertex -11 -11 10
      vertex -5.35827 -8.44328 10
    endloop
  endfacet
  facet normal 0 0 1
    outer loop
      vertex -7.28969 -6.84547 10
      vertex -11 -11 10
      vertex -6.37424 -7.70513 10
    endloop
  endfacet
  facet normal 0 0 1
    outer loop
      vertex -8.09017 -5.87785 10
      vertex -11 -11 10
      vertex -7.28969 -6.84547 10
    endloop
  endfacet
  facet normal 0 0 1
    outer loop
      vertex -8.76307 -4.81754 10
      vertex -11 -11 10
      vertex -8.09017 -5.87785 10
    endloop
  endfacet
  facet normal 0 0 1
    outer loop
      vertex -9.29776 -3.68124 10
      vertex -11 -11 10
      vertex -8.76307 -4.81754 10
    endloop
  endfacet
  facet normal 0 0 1
    outer loop
      vertex -9.68583 -2.4869 10
      vertex -11 -11 10
      vertex -9.29776 -3.68124 10
    endloop
  endfacet
  facet normal 0 0 1
    outer loop
      vertex -9.92115 -1.25333 10
      vertex -11 -11 10
      vertex -9.68583 -2.4869 10
    endloop
  endfacet
  facet normal 0 0 1
    outer loop
      vertex -10 0 10
      vertex -11 -11 10
      vertex -9.92115 -1.25333 10
    endloop
  endfacet
  facet normal 1 -0 0
    outer loop
      vertex 11 -11 10
      vertex 11 11 -10
      vertex 11 11 10
    endloop
  endfacet
  facet normal 1 0 0
    outer loop
      vertex 11 11 -10
      vertex 11 -11 10
      vertex 11 -11 -10
    endloop
  endfacet
  facet normal 0 1 -0
    outer loop
      vertex 11 11 -10
      vertex -11 11 10
      vertex 11 11 10
    endloop
  endfacet
  facet normal 0 1 0
    outer loop
      vertex -11 11 10
      vertex 11 11 -10
      vertex -11 11 -10
    endloop
  endfacet
  facet normal 0 0 -1
    outer loop
      vertex 11 -11 -10
      vertex 10 0 -10
      vertex 11 11 -10
    endloop
  endfacet
  facet normal 0 0 -1
    outer loop
      vertex 11 -11 -10
      vertex 9.92115 -1.25333 -10
      vertex 10 0 -10
    endloop
  endfacet
  facet normal 0 0 -1
    outer loop
      vertex 11 -11 -10
      vertex 9.68583 -2.4869 -10
      vertex 9.92115 -1.25333 -10
    endloop
  endfacet
  facet normal 0 0 -1
    outer loop
      vertex 11 -11 -10
      vertex 9.29776 -3.68124 -10
      vertex 9.68583 -2.4869 -10
    endloop
  endfacet
  facet normal 0 0 -1
    outer loop
      vertex 11 -11 -10
      vertex 8.76307 -4.81754 -10
      vertex 9.29776 -3.68124 -10
    endloop
  endfacet
  facet normal 0 0 -1
    outer loop
      vertex 11 -11 -10
      vertex 8.09017 -5.87785 -10
      vertex 8.76307 -4.81754 -10
    endloop
  endfacet
  facet normal 0 0 -1
    outer loop
      vertex 11 -11 -10
      vertex 7.28969 -6.84547 -10
      vertex 8.09017 -5.87785 -10
    endloop
  endfacet
  facet normal 0 0 -1
    outer loop
      vertex 11 -11 -10
      vertex 6.37424 -7.70513 -10
      vertex 7.28969 -6.84547 -10
    endloop
  endfacet
  facet normal 0 0 -1
    outer loop
      vertex 11 -11 -10
      vertex 5.35827 -8.44328 -10
      vertex 6.37424 -7.70513 -10
    endloop
  endfacet
  facet normal 0 0 -1
    outer loop
      vertex 11 -11 -10
      vertex 4.25779 -9.04827 -10
      vertex 5.35827 -8.44328 -10
    endloop
  endfacet
  facet normal 0 0 -1
    outer loop
      vertex 11 -11 -10
      vertex 3.09017 -9.51056 -10
      vertex 4.25779 -9.04827 -10
    endloop
  endfacet
  facet normal 0 0 -1
    outer loop
      vertex 11 -11 -10
      vertex 1.87381 -9.82287 -10
      vertex 3.09017 -9.51056 -10
    endloop
  endfacet
  facet normal 0 0 -1
    outer loop
      vertex 11 -11 -10
      vertex 0.627905 -9.98027 -10
      vertex 1.87381 -9.82287 -10
    endloop
  endfacet
  facet normal 0 0 -1
    outer loop
      vertex 11 -11 -10
      vertex -0.627905 -9.98027 -10
      vertex 0.627905 -9.98027 -10
    endloop
  endfacet
  facet normal -0 0 -1
    outer loop
      vertex -9.92115 -1.25333 -10
      vertex -11 -11 -10
      vertex -10 0 -10
    endloop
  endfacet
  facet normal -0 0 -1
    outer loop
      vertex -9.68583 -2.4869 -10
      vertex -11 -11 -10
      vertex -9.92115 -1.25333 -10
    endloop
  endfacet
  facet normal -0 0 -1
    outer loop
      vertex -9.29776 -3.68124 -10
      vertex -11 -11 -10
      vertex -9.68583 -2.4869 -10
    endloop
  endfacet
  facet normal -0 0 -1
    outer loop
      vertex -8.76307 -4.81754 -10
      vertex -11 -11 -10
      vertex -9.29776 -3.68124 -10
    endloop
  endfacet
  facet normal -0 0 -1
    outer loop
      vertex -8.09017 -5.87785 -10
      vertex -11 -11 -10
      vertex -8.76307 -4.81754 -10
    endloop
  endfacet
  facet normal -0 0 -1
    outer loop
      vertex -7.28969 -6.84547 -10
      vertex -11 -11 -10
      vertex -8.09017 -5.87785 -10
    endloop
  endfacet
  facet normal -0 0 -1
    outer loop
      vertex -6.37424 -7.70513 -10
      vertex -11 -11 -10
      vertex -7.28969 -6.84547 -10
    endloop
  endfacet
  facet normal -0 0 -1
    outer loop
      vertex -5.35827 -8.44328 -10
      vertex -11 -11 -10
      vertex -6.37424 -7.70513 -10
    endloop
  endfacet
  facet normal -0 0 -1
    outer loop
      vertex -4.25779 -9.04827 -10
      vertex -11 -11 -10
      vertex -5.35827 -8.44328 -10
    endloop
  endfacet
  facet normal -0 0 -1
    outer loop
      vertex -3.09017 -9.51056 -10
      vertex -11 -11 -10
      vertex -4.25779 -9.04827 -10
    endloop
  endfacet
  facet normal -0 0 -1
    outer loop
      vertex -1.87381 -9.82287 -10
      vertex -11 -11 -10
      vertex -3.09017 -9.51056 -10
    endloop
  endfacet
  facet normal -0 0 -1
    outer loop
      vertex -0.627905 -9.98027 -10
      vertex -11 -11 -10
      vertex -1.87381 -9.82287 -10
    endloop
  endfacet
  facet normal 0 0 -1
    outer loop
      vertex -11 -11 -10
      vertex -0.627905 -9.98027 -10
      vertex 11 -11 -10
    endloop
  endfacet
  facet normal 0 0 -1
    outer loop
      vertex 9.92115 1.25333 -10
      vertex 11 11 -10
      vertex 10 0 -10
    endloop
  endfacet
  facet normal 0 0 -1
    outer loop
      vertex 9.68583 2.4869 -10
      vertex 11 11 -10
      vertex 9.92115 1.25333 -10
    endloop
  endfacet
  facet normal 0 0 -1
    outer loop
      vertex 9.29776 3.68124 -10
      vertex 11 11 -10
      vertex 9.68583 2.4869 -10
    endloop
  endfacet
  facet normal 0 0 -1
    outer loop
      vertex 8.76307 4.81754 -10
      vertex 11 11 -10
      vertex 9.29776 3.68124 -10
    endloop
  endfacet
  facet normal 0 0 -1
    outer loop
      vertex 8.09017 5.87785 -10
      vertex 11 11 -10
      vertex 8.76307 4.81754 -10
    endloop
  endfacet
  facet normal 0 0 -1
    outer loop
      vertex 7.28969 6.84547 -10
      vertex 11 11 -10
      vertex 8.09017 5.87785 -10
    endloop
  endfacet
  facet normal 0 0 -1
    outer loop
      vertex 6.37424 7.70513 -10
      vertex 11 11 -10
      vertex 7.28969 6.84547 -10
    endloop
  endfacet
  facet normal 0 0 -1
    outer loop
      vertex 5.35827 8.44328 -10
      vertex 11 11 -10
      vertex 6.37424 7.70513 -10
    endloop
  endfacet
  facet normal 0 0 -1
    outer loop
      vertex 4.25779 9.04827 -10
      vertex 11 11 -10
      vertex 5.35827 8.44328 -10
    endloop
  endfacet
  facet normal 0 0 -1
    outer loop
      vertex 3.09017 9.51056 -10
      vertex 11 11 -10
      vertex 4.25779 9.04827 -10
    endloop
  endfacet
  facet normal 0 0 -1
    outer loop
      vertex 1.87381 9.82287 -10
      vertex 11 11 -10
      vertex 3.09017 9.51056 -10
    endloop
  endfacet
  facet normal 0 0 -1
    outer loop
      vertex 0.627905 9.98027 -10
      vertex 11 11 -10
      vertex 1.87381 9.82287 -10
    endloop
  endfacet
  facet normal 0 0 -1
    outer loop
      vertex -0.627905 9.98027 -10
      vertex 11 11 -10
      vertex 0.627905 9.98027 -10
    endloop
  endfacet
  facet normal 0 0 -1
    outer loop
      vertex -11 11 -10
      vertex -10 0 -10
      vertex -11 -11 -10
    endloop
  endfacet
  facet normal 0 0 -1
    outer loop
      vertex -0.627905 9.98027 -10
      vertex -11 11 -10
      vertex 11 11 -10
    endloop
  endfacet
  facet normal 0 0 -1
    outer loop
      vertex -1.87381 9.82287 -10
      vertex -11 11 -10
      vertex -0.627905 9.98027 -10
    endloop
  endfacet
  facet normal 0 0 -1
    outer loop
      vertex -3.09017 9.51056 -10
      vertex -11 11 -10
      vertex -1.87381 9.82287 -10
    endloop
  endfacet
  facet normal 0 0 -1
    outer loop
      vertex -4.25779 9.04827 -10
      vertex -11 11 -10
      vertex -3.09017 9.51056 -10
    endloop
  endfacet
  facet normal 0 0 -1
    outer loop
      vertex -5.35827 8.44328 -10
      vertex -11 11 -10
      vertex -4.25779 9.04827 -10
    endloop
  endfacet
  facet normal 0 0 -1
    outer loop
      vertex -6.37424 7.70513 -10
      vertex -11 11 -10
      vertex -5.35827 8.44328 -10
    endloop
  endfacet
  facet normal 0 0 -1
    outer loop
      vertex -7.28969 6.84547 -10
      vertex -11 11 -10
      vertex -6.37424 7.70513 -10
    endloop
  endfacet
  facet normal 0 0 -1
    outer loop
      vertex -8.09017 5.87785 -10
      vertex -11 11 -10
      vertex -7.28969 6.84547 -10
    endloop
  endfacet
  facet normal 0 0 -1
    outer loop
      vertex -8.76307 4.81754 -10
      vertex -11 11 -10
      vertex -8.09017 5.87785 -10
    endloop
  endfacet
  facet normal 0 0 -1
    outer loop
      vertex -9.29776 3.68124 -10
      vertex -11 11 -10
      vertex -8.76307 4.81754 -10
    endloop
  endfacet
  facet normal 0 0 -1
    outer loop
      vertex -9.68583 2.4869 -10
      vertex -11 11 -10
      vertex -9.29776 3.68124 -10
    endloop
  endfacet
  facet normal 0 0 -1
    outer loop
      vertex -9.92115 1.25333 -10
      vertex -11 11 -10
      vertex -9.68583 2.4869 -10
    endloop
  endfacet
  facet normal 0 0 -1
    outer loop
      vertex -10 0 -10
      vertex -11 11 -10
      vertex -9.92115 1.25333 -10
    endloop
  endfacet
  facet normal 0 -1 0
    outer loop
      vertex -11 -11 -10
      vertex 11 -11 10
      vertex -11 -11 10
    endloop
  endfacet
  facet normal 0 -1 -0
    outer loop
      vertex 11 -11 10
      vertex -11 -11 -10
      vertex 11 -11 -10
    endloop
  endfacet
  facet normal -0.904827 -0.425779 0
    outer loop
      vertex 9.29776 3.68124 -10
      vertex 8.76307 4.81754 10
      vertex 8.76307 4.81754 -10
    endloop
  endfacet
  facet normal -0.904827 -0.425779 0
    outer loop
      vertex 8.76307 4.81754 10
      vertex 9.29776 3.68124 -10
      vertex 9.29776 3.68124 10
    endloop
  endfacet
  facet normal 0.951057 -0.309017 0
    outer loop
      vertex -9.68583 2.4869 10
      vertex -9.29776 3.68124 -10
      vertex -9.29776 3.68124 10
    endloop
  endfacet
  facet normal 0.951057 -0.309017 0
    outer loop
      vertex -9.29776 3.68124 -10
      vertex -9.68583 2.4869 10
      vertex -9.68583 2.4869 -10
    endloop
  endfacet
  facet normal -0.844328 -0.535826 0
    outer loop
      vertex 8.76307 4.81754 -10
      vertex 8.09017 5.87785 10
      vertex 8.09017 5.87785 -10
    endloop
  endfacet
  facet normal -0.844328 -0.535826 0
    outer loop
      vertex 8.09017 5.87785 10
      vertex 8.76307 4.81754 -10
      vertex 8.76307 4.81754 10
    endloop
  endfacet
  facet normal -0.368125 -0.929776 0
    outer loop
      vertex 3.09017 9.51056 -10
      vertex 4.25779 9.04827 10
      vertex 3.09017 9.51056 10
    endloop
  endfacet
  facet normal -0.368125 -0.929776 -0
    outer loop
      vertex 4.25779 9.04827 10
      vertex 3.09017 9.51056 -10
      vertex 4.25779 9.04827 -10
    endloop
  endfacet
  facet normal 0.368125 -0.929776 0
    outer loop
      vertex -4.25779 9.04827 -10
      vertex -3.09017 9.51056 10
      vertex -4.25779 9.04827 10
    endloop
  endfacet
  facet normal 0.368125 -0.929776 0
    outer loop
      vertex -3.09017 9.51056 10
      vertex -4.25779 9.04827 -10
      vertex -3.09017 9.51056 -10
    endloop
  endfacet
  facet normal 0.904827 -0.425779 0
    outer loop
      vertex -9.29776 3.68124 10
      vertex -8.76307 4.81754 -10
      vertex -8.76307 4.81754 10
    endloop
  endfacet
  facet normal 0.904827 -0.425779 0
    outer loop
      vertex -8.76307 4.81754 -10
      vertex -9.29776 3.68124 10
      vertex -9.29776 3.68124 -10
    endloop
  endfacet
  facet normal -0.982287 0.187381 0
    outer loop
      vertex 9.68583 -2.4869 -10
      vertex 9.92115 -1.25333 10
      vertex 9.92115 -1.25333 -10
    endloop
  endfacet
  facet normal -0.982287 0.187381 0
    outer loop
      vertex 9.92115 -1.25333 10
      vertex 9.68583 -2.4869 -10
      vertex 9.68583 -2.4869 10
    endloop
  endfacet
  facet normal -0.125333 -0.992115 0
    outer loop
      vertex 0.627905 9.98027 -10
      vertex 1.87381 9.82287 10
      vertex 0.627905 9.98027 10
    endloop
  endfacet
  facet normal -0.125333 -0.992115 -0
    outer loop
      vertex 1.87381 9.82287 10
      vertex 0.627905 9.98027 -10
      vertex 1.87381 9.82287 -10
    endloop
  endfacet
  facet normal -0.481754 -0.876307 0
    outer loop
      vertex 4.25779 9.04827 -10
      vertex 5.35827 8.44328 10
      vertex 4.25779 9.04827 10
    endloop
  endfacet
  facet normal -0.481754 -0.876307 -0
    outer loop
      vertex 5.35827 8.44328 10
      vertex 4.25779 9.04827 -10
      vertex 5.35827 8.44328 -10
    endloop
  endfacet
  facet normal 0.982287 -0.187381 0
    outer loop
      vertex -9.92115 1.25333 10
      vertex -9.68583 2.4869 -10
      vertex -9.68583 2.4869 10
    endloop
  endfacet
  facet normal 0.982287 -0.187381 0
    outer loop
      vertex -9.68583 2.4869 -10
      vertex -9.92115 1.25333 10
      vertex -9.92115 1.25333 -10
    endloop
  endfacet
  facet normal 0.770513 -0.637424 0
    outer loop
      vertex -8.09017 5.87785 10
      vertex -7.28969 6.84547 -10
      vertex -7.28969 6.84547 10
    endloop
  endfacet
  facet normal 0.770513 -0.637424 0
    outer loop
      vertex -7.28969 6.84547 -10
      vertex -8.09017 5.87785 10
      vertex -8.09017 5.87785 -10
    endloop
  endfacet
  facet normal 0.481754 -0.876307 0
    outer loop
      vertex -5.35827 8.44328 -10
      vertex -4.25779 9.04827 10
      vertex -5.35827 8.44328 10
    endloop
  endfacet
  facet normal 0.481754 -0.876307 0
    outer loop
      vertex -4.25779 9.04827 10
      vertex -5.35827 8.44328 -10
      vertex -4.25779 9.04827 -10
    endloop
  endfacet
  facet normal 0.125333 -0.992115 0
    outer loop
      vertex -1.87381 9.82287 -10
      vertex -0.627905 9.98027 10
      vertex -1.87381 9.82287 10
    endloop
  endfacet
  facet normal 0.125333 -0.992115 0
    outer loop
      vertex -0.627905 9.98027 10
      vertex -1.87381 9.82287 -10
      vertex -0.627905 9.98027 -10
    endloop
  endfacet
  facet normal -0.998027 -0.062791 0
    outer loop
      vertex 10 0 -10
      vertex 9.92115 1.25333 10
      vertex 9.92115 1.25333 -10
    endloop
  endfacet
  facet normal -0.998027 -0.062791 0
    outer loop
      vertex 9.92115 1.25333 10
      vertex 10 0 -10
      vertex 10 0 10
    endloop
  endfacet
  facet normal -0.481754 0.876307 0
    outer loop
      vertex 5.35827 -8.44328 -10
      vertex 4.25779 -9.04827 10
      vertex 5.35827 -8.44328 10
    endloop
  endfacet
  facet normal -0.481754 0.876307 0
    outer loop
      vertex 4.25779 -9.04827 10
      vertex 5.35827 -8.44328 -10
      vertex 4.25779 -9.04827 -10
    endloop
  endfacet
  facet normal -0.951057 0.309017 0
    outer loop
      vertex 9.29776 -3.68124 -10
      vertex 9.68583 -2.4869 10
      vertex 9.68583 -2.4869 -10
    endloop
  endfacet
  facet normal -0.951057 0.309017 0
    outer loop
      vertex 9.68583 -2.4869 10
      vertex 9.29776 -3.68124 -10
      vertex 9.29776 -3.68124 10
    endloop
  endfacet
  facet normal 0.684547 0.728969 -0
    outer loop
      vertex -6.37424 -7.70513 -10
      vertex -7.28969 -6.84547 10
      vertex -6.37424 -7.70513 10
    endloop
  endfacet
  facet normal 0.684547 0.728969 0
    outer loop
      vertex -7.28969 -6.84547 10
      vertex -6.37424 -7.70513 -10
      vertex -7.28969 -6.84547 -10
    endloop
  endfacet
  facet normal -0.982287 -0.187381 0
    outer loop
      vertex 9.92115 1.25333 -10
      vertex 9.68583 2.4869 10
      vertex 9.68583 2.4869 -10
    endloop
  endfacet
  facet normal -0.982287 -0.187381 0
    outer loop
      vertex 9.68583 2.4869 10
      vertex 9.92115 1.25333 -10
      vertex 9.92115 1.25333 10
    endloop
  endfacet
  facet normal -0.951057 -0.309017 0
    outer loop
      vertex 9.68583 2.4869 -10
      vertex 9.29776 3.68124 10
      vertex 9.29776 3.68124 -10
    endloop
  endfacet
  facet normal -0.951057 -0.309017 0
    outer loop
      vertex 9.29776 3.68124 10
      vertex 9.68583 2.4869 -10
      vertex 9.68583 2.4869 10
    endloop
  endfacet
  facet normal -0.684547 -0.728969 0
    outer loop
      vertex 6.37424 7.70513 -10
      vertex 7.28969 6.84547 10
      vertex 6.37424 7.70513 10
    endloop
  endfacet
  facet normal -0.684547 -0.728969 -0
    outer loop
      vertex 7.28969 6.84547 10
      vertex 6.37424 7.70513 -10
      vertex 7.28969 6.84547 -10
    endloop
  endfacet
  facet normal -0.770513 -0.637424 0
    outer loop
      vertex 8.09017 5.87785 -10
      vertex 7.28969 6.84547 10
      vertex 7.28969 6.84547 -10
    endloop
  endfacet
  facet normal -0.770513 -0.637424 0
    outer loop
      vertex 7.28969 6.84547 10
      vertex 8.09017 5.87785 -10
      vertex 8.09017 5.87785 10
    endloop
  endfacet
  facet normal 0 -1 0
    outer loop
      vertex -0.627905 9.98027 -10
      vertex 0.627905 9.98027 10
      vertex -0.627905 9.98027 10
    endloop
  endfacet
  facet normal 0 -1 -0
    outer loop
      vertex 0.627905 9.98027 10
      vertex -0.627905 9.98027 -10
      vertex 0.627905 9.98027 -10
    endloop
  endfacet
  facet normal -0.24869 -0.968583 0
    outer loop
      vertex 1.87381 9.82287 -10
      vertex 3.09017 9.51056 10
      vertex 1.87381 9.82287 10
    endloop
  endfacet
  facet normal -0.24869 -0.968583 -0
    outer loop
      vertex 3.09017 9.51056 10
      vertex 1.87381 9.82287 -10
      vertex 3.09017 9.51056 -10
    endloop
  endfacet
  facet normal -0.587786 -0.809017 0
    outer loop
      vertex 5.35827 8.44328 -10
      vertex 6.37424 7.70513 10
      vertex 5.35827 8.44328 10
    endloop
  endfacet
  facet normal -0.587786 -0.809017 -0
    outer loop
      vertex 6.37424 7.70513 10
      vertex 5.35827 8.44328 -10
      vertex 6.37424 7.70513 -10
    endloop
  endfacet
  facet normal 0.998027 -0.062791 0
    outer loop
      vertex -10 0 10
      vertex -9.92115 1.25333 -10
      vertex -9.92115 1.25333 10
    endloop
  endfacet
  facet normal 0.998027 -0.062791 0
    outer loop
      vertex -9.92115 1.25333 -10
      vertex -10 0 10
      vertex -10 0 -10
    endloop
  endfacet
  facet normal 0.844328 -0.535826 0
    outer loop
      vertex -8.76307 4.81754 10
      vertex -8.09017 5.87785 -10
      vertex -8.09017 5.87785 10
    endloop
  endfacet
  facet normal 0.844328 -0.535826 0
    outer loop
      vertex -8.09017 5.87785 -10
      vertex -8.76307 4.81754 10
      vertex -8.76307 4.81754 -10
    endloop
  endfacet
  facet normal 0.24869 -0.968583 0
    outer loop
      vertex -3.09017 9.51056 -10
      vertex -1.87381 9.82287 10
      vertex -3.09017 9.51056 10
    endloop
  endfacet
  facet normal 0.24869 -0.968583 0
    outer loop
      vertex -1.87381 9.82287 10
      vertex -3.09017 9.51056 -10
      vertex -1.87381 9.82287 -10
    endloop
  endfacet
  facet normal 0.587786 -0.809017 0
    outer loop
      vertex -6.37424 7.70513 -10
      vertex -5.35827 8.44328 10
      vertex -6.37424 7.70513 10
    endloop
  endfacet
  facet normal 0.587786 -0.809017 0
    outer loop
      vertex -5.35827 8.44328 10
      vertex -6.37424 7.70513 -10
      vertex -5.35827 8.44328 -10
    endloop
  endfacet
  facet normal 0.684547 -0.728969 0
    outer loop
      vertex -7.28969 6.84547 -10
      vertex -6.37424 7.70513 10
      vertex -7.28969 6.84547 10
    endloop
  endfacet
  facet normal 0.684547 -0.728969 0
    outer loop
      vertex -6.37424 7.70513 10
      vertex -7.28969 6.84547 -10
      vertex -6.37424 7.70513 -10
    endloop
  endfacet
  facet normal 0 1 -0
    outer loop
      vertex 0.627905 -9.98027 -10
      vertex -0.627905 -9.98027 10
      vertex 0.627905 -9.98027 10
    endloop
  endfacet
  facet normal 0 1 0
    outer loop
      vertex -0.627905 -9.98027 10
      vertex 0.627905 -9.98027 -10
      vertex -0.627905 -9.98027 -10
    endloop
  endfacet
  facet normal 0.951057 0.309017 0
    outer loop
      vertex -9.29776 -3.68124 10
      vertex -9.68583 -2.4869 -10
      vertex -9.68583 -2.4869 10
    endloop
  endfacet
  facet normal 0.951057 0.309017 0
    outer loop
      vertex -9.68583 -2.4869 -10
      vertex -9.29776 -3.68124 10
      vertex -9.29776 -3.68124 -10
    endloop
  endfacet
  facet normal 0.770513 0.637424 0
    outer loop
      vertex -7.28969 -6.84547 10
      vertex -8.09017 -5.87785 -10
      vertex -8.09017 -5.87785 10
    endloop
  endfacet
  facet normal 0.770513 0.637424 0
    outer loop
      vertex -8.09017 -5.87785 -10
      vertex -7.28969 -6.84547 10
      vertex -7.28969 -6.84547 -10
    endloop
  endfacet
  facet normal -0.125333 0.992115 0
    outer loop
      vertex 1.87381 -9.82287 -10
      vertex 0.627905 -9.98027 10
      vertex 1.87381 -9.82287 10
    endloop
  endfacet
  facet normal -0.125333 0.992115 0
    outer loop
      vertex 0.627905 -9.98027 10
      vertex 1.87381 -9.82287 -10
      vertex 0.627905 -9.98027 -10
    endloop
  endfacet
  facet normal -0.998027 0.062791 0
    outer loop
      vertex 9.92115 -1.25333 -10
      vertex 10 0 10
      vertex 10 0 -10
    endloop
  endfacet
  facet normal -0.998027 0.062791 0
    outer loop
      vertex 10 0 10
      vertex 9.92115 -1.25333 -10
      vertex 9.92115 -1.25333 10
    endloop
  endfacet
  facet normal -0.770513 0.637424 0
    outer loop
      vertex 7.28969 -6.84547 -10
      vertex 8.09017 -5.87785 10
      vertex 8.09017 -5.87785 -10
    endloop
  endfacet
  facet normal -0.770513 0.637424 0
    outer loop
      vertex 8.09017 -5.87785 10
      vertex 7.28969 -6.84547 -10
      vertex 7.28969 -6.84547 10
    endloop
  endfacet
  facet normal -0.844328 0.535826 0
    outer loop
      vertex 8.09017 -5.87785 -10
      vertex 8.76307 -4.81754 10
      vertex 8.76307 -4.81754 -10
    endloop
  endfacet
  facet normal -0.844328 0.535826 0
    outer loop
      vertex 8.76307 -4.81754 10
      vertex 8.09017 -5.87785 -10
      vertex 8.09017 -5.87785 10
    endloop
  endfacet
  facet normal -0.904827 0.425779 0
    outer loop
      vertex 8.76307 -4.81754 -10
      vertex 9.29776 -3.68124 10
      vertex 9.29776 -3.68124 -10
    endloop
  endfacet
  facet normal -0.904827 0.425779 0
    outer loop
      vertex 9.29776 -3.68124 10
      vertex 8.76307 -4.81754 -10
      vertex 8.76307 -4.81754 10
    endloop
  endfacet
  facet normal 0.24869 0.968583 -0
    outer loop
      vertex -1.87381 -9.82287 -10
      vertex -3.09017 -9.51056 10
      vertex -1.87381 -9.82287 10
    endloop
  endfacet
  facet normal 0.24869 0.968583 0
    outer loop
      vertex -3.09017 -9.51056 10
      vertex -1.87381 -9.82287 -10
      vertex -3.09017 -9.51056 -10
    endloop
  endfacet
  facet normal -0.368125 0.929776 0
    outer loop
      vertex 4.25779 -9.04827 -10
      vertex 3.09017 -9.51056 10
      vertex 4.25779 -9.04827 10
    endloop
  endfacet
  facet normal -0.368125 0.929776 0
    outer loop
      vertex 3.09017 -9.51056 10
      vertex 4.25779 -9.04827 -10
      vertex 3.09017 -9.51056 -10
    endloop
  endfacet
  facet normal -0.24869 0.968583 0
    outer loop
      vertex 3.09017 -9.51056 -10
      vertex 1.87381 -9.82287 10
      vertex 3.09017 -9.51056 10
    endloop
  endfacet
  facet normal -0.24869 0.968583 0
    outer loop
      vertex 1.87381 -9.82287 10
      vertex 3.09017 -9.51056 -10
      vertex 1.87381 -9.82287 -10
    endloop
  endfacet
  facet normal -0.684547 0.728969 0
    outer loop
      vertex 7.28969 -6.84547 -10
      vertex 6.37424 -7.70513 10
      vertex 7.28969 -6.84547 10
    endloop
  endfacet
  facet normal -0.684547 0.728969 0
    outer loop
      vertex 6.37424 -7.70513 10
      vertex 7.28969 -6.84547 -10
      vertex 6.37424 -7.70513 -10
    endloop
  endfacet
  facet normal -0.587786 0.809017 0
    outer loop
      vertex 6.37424 -7.70513 -10
      vertex 5.35827 -8.44328 10
      vertex 6.37424 -7.70513 10
    endloop
  endfacet
  facet normal -0.587786 0.809017 0
    outer loop
      vertex 5.35827 -8.44328 10
      vertex 6.37424 -7.70513 -10
      vertex 5.35827 -8.44328 -10
    endloop
  endfacet
  facet normal 0.125333 0.992115 -0
    outer loop
      vertex -0.627905 -9.98027 -10
      vertex -1.87381 -9.82287 10
      vertex -0.627905 -9.98027 10
    endloop
  endfacet
  facet normal 0.125333 0.992115 0
    outer loop
      vertex -1.87381 -9.82287 10
      vertex -0.627905 -9.98027 -10
      vertex -1.87381 -9.82287 -10
    endloop
  endfacet
  facet normal 0.481754 0.876307 -0
    outer loop
      vertex -4.25779 -9.04827 -10
      vertex -5.35827 -8.44328 10
      vertex -4.25779 -9.04827 10
    endloop
  endfacet
  facet normal 0.481754 0.876307 0
    outer loop
      vertex -5.35827 -8.44328 10
      vertex -4.25779 -9.04827 -10
      vertex -5.35827 -8.44328 -10
    endloop
  endfacet
  facet normal 0.982287 0.187381 0
    outer loop
      vertex -9.68583 -2.4869 10
      vertex -9.92115 -1.25333 -10
      vertex -9.92115 -1.25333 10
    endloop
  endfacet
  facet normal 0.982287 0.187381 0
    outer loop
      vertex -9.92115 -1.25333 -10
      vertex -9.68583 -2.4869 10
      vertex -9.68583 -2.4869 -10
    endloop
  endfacet
  facet normal 0.998027 0.062791 0
    outer loop
      vertex -9.92115 -1.25333 10
      vertex -10 0 -10
      vertex -10 0 10
    endloop
  endfacet
  facet normal 0.998027 0.062791 0
    outer loop
      vertex -10 0 -10
      vertex -9.92115 -1.25333 10
      vertex -9.92115 -1.25333 -10
    endloop
  endfacet
  facet normal 0.844328 0.535826 0
    outer loop
      vertex -8.09017 -5.87785 10
      vertex -8.76307 -4.81754 -10
      vertex -8.76307 -4.81754 10
    endloop
  endfacet
  facet normal 0.844328 0.535826 0
    outer loop
      vertex -8.76307 -4.81754 -10
      vertex -8.09017 -5.87785 10
      vertex -8.09017 -5.87785 -10
    endloop
  endfacet
  facet normal 0.904827 0.425779 0
    outer loop
      vertex -8.76307 -4.81754 10
      vertex -9.29776 -3.68124 -10
      vertex -9.29776 -3.68124 10
    endloop
  endfacet
  facet normal 0.904827 0.425779 0
    outer loop
      vertex -9.29776 -3.68124 -10
      vertex -8.76307 -4.81754 10
      vertex -8.76307 -4.81754 -10
    endloop
  endfacet
  facet normal 0.587786 0.809017 -0
    outer loop
      vertex -5.35827 -8.44328 -10
      vertex -6.37424 -7.70513 10
      vertex -5.35827 -8.44328 10
    endloop
  endfacet
  facet normal 0.587786 0.809017 0
    outer loop
      vertex -6.37424 -7.70513 10
      vertex -5.35827 -8.44328 -10
      vertex -6.37424 -7.70513 -10
    endloop
  endfacet
  facet normal 0.368125 0.929776 -0
    outer loop
      vertex -3.09017 -9.51056 -10
      vertex -4.25779 -9.04827 10
      vertex -3.09017 -9.51056 10
    endloop
  endfacet
  facet normal 0.368125 0.929776 0
    outer loop
      vertex -4.25779 -9.04827 10
      vertex -3.09017 -9.51056 -10
      vertex -4.25779 -9.04827 -10
    endloop
  endfacet
  facet normal 0 0 1
    outer loop
      vertex 34.9606 -0.626666 10
      vertex 37.5 0 10
      vertex 35 0 10
    endloop
  endfacet
  facet normal 0 0 1
    outer loop
      vertex 34.8429 -1.24345 10
      vertex 37.5 0 10
      vertex 34.9606 -0.626666 10
    endloop
  endfacet
  facet normal 0 0 1
    outer loop
      vertex 34.6489 -1.84062 10
      vertex 37.5 0 10
      vertex 34.8429 -1.24345 10
    endloop
  endfacet
  facet normal 0 0 1
    outer loop
      vertex 37.5 0 10
      vertex 34.6489 -1.84062 10
      vertex 37.5 -7.5 10
    endloop
  endfacet
  facet normal -0 0 1
    outer loop
      vertex 34.3815 -2.40877 10
      vertex 37.5 -7.5 10
      vertex 34.6489 -1.84062 10
    endloop
  endfacet
  facet normal -0 0 1
    outer loop
      vertex 34.0451 -2.93893 10
      vertex 37.5 -7.5 10
      vertex 34.3815 -2.40877 10
    endloop
  endfacet
  facet normal -0 0 1
    outer loop
      vertex 33.6448 -3.42274 10
      vertex 37.5 -7.5 10
      vertex 34.0451 -2.93893 10
    endloop
  endfacet
  facet normal -0 0 1
    outer loop
      vertex 33.1871 -3.85257 10
      vertex 37.5 -7.5 10
      vertex 33.6448 -3.42274 10
    endloop
  endfacet
  facet normal -0 0 1
    outer loop
      vertex 32.6791 -4.22164 10
      vertex 37.5 -7.5 10
      vertex 33.1871 -3.85257 10
    endloop
  endfacet
  facet normal -0 0 1
    outer loop
      vertex 32.1289 -4.52413 10
      vertex 37.5 -7.5 10
      vertex 32.6791 -4.22164 10
    endloop
  endfacet
  facet normal 0 0 1
    outer loop
      vertex 30 -7.5 10
      vertex 32.1289 -4.52413 10
      vertex 31.5451 -4.75528 10
    endloop
  endfacet
  facet normal 0 0 1
    outer loop
      vertex 30 -7.5 10
      vertex 31.5451 -4.75528 10
      vertex 30.9369 -4.91144 10
    endloop
  endfacet
  facet normal 0 0 1
    outer loop
      vertex 30 -7.5 10
      vertex 30.9369 -4.91144 10
      vertex 30.314 -4.99013 10
    endloop
  endfacet
  facet normal 0 0 1
    outer loop
      vertex 30 -7.5 10
      vertex 30.314 -4.99013 10
      vertex 30 -4.99013 10
    endloop
  endfacet
  facet normal 0 0 1
    outer loop
      vertex 32.1289 -4.52413 10
      vertex 30 -7.5 10
      vertex 37.5 -7.5 10
    endloop
  endfacet
  facet normal 1 -0 0
    outer loop
      vertex 37.5 -7.5 10
      vertex 37.5 0 -10
      vertex 37.5 0 10
    endloop
  endfacet
  facet normal 1 0 0
    outer loop
      vertex 37.5 0 -10
      vertex 37.5 -7.5 10
      vertex 37.5 -7.5 -10
    endloop
  endfacet
  facet normal 0 0 -1
    outer loop
      vertex 34.6489 -1.84062 -10
      vertex 37.5 0 -10
      vertex 37.5 -7.5 -10
    endloop
  endfacet
  facet normal -0 0 -1
    outer loop
      vertex 37.5 0 -10
      vertex 34.9606 -0.626666 -10
      vertex 35 0 -10
    endloop
  endfacet
  facet normal 0 0 -1
    outer loop
      vertex 37.5 0 -10
      vertex 34.8429 -1.24345 -10
      vertex 34.9606 -0.626666 -10
    endloop
  endfacet
  facet normal 0 0 -1
    outer loop
      vertex 37.5 0 -10
      vertex 34.6489 -1.84062 -10
      vertex 34.8429 -1.24345 -10
    endloop
  endfacet
  facet normal 0 0 -1
    outer loop
      vertex 37.5 -7.5 -10
      vertex 34.3815 -2.40877 -10
      vertex 34.6489 -1.84062 -10
    endloop
  endfacet
  facet normal 0 0 -1
    outer loop
      vertex 37.5 -7.5 -10
      vertex 34.0451 -2.93893 -10
      vertex 34.3815 -2.40877 -10
    endloop
  endfacet
  facet normal 0 0 -1
    outer loop
      vertex 37.5 -7.5 -10
      vertex 33.6448 -3.42274 -10
      vertex 34.0451 -2.93893 -10
    endloop
  endfacet
  facet normal 0 0 -1
    outer loop
      vertex 37.5 -7.5 -10
      vertex 33.1871 -3.85257 -10
      vertex 33.6448 -3.42274 -10
    endloop
  endfacet
  facet normal 0 0 -1
    outer loop
      vertex 37.5 -7.5 -10
      vertex 32.6791 -4.22164 -10
      vertex 33.1871 -3.85257 -10
    endloop
  endfacet
  facet normal 0 0 -1
    outer loop
      vertex 37.5 -7.5 -10
      vertex 32.1289 -4.52413 -10
      vertex 32.6791 -4.22164 -10
    endloop
  endfacet
  facet normal 0 0 -1
    outer loop
      vertex 30 -7.5 -10
      vertex 32.1289 -4.52413 -10
      vertex 37.5 -7.5 -10
    endloop
  endfacet
  facet normal 0 0 -1
    outer loop
      vertex 32.1289 -4.52413 -10
      vertex 30 -7.5 -10
      vertex 31.5451 -4.75528 -10
    endloop
  endfacet
  facet normal 0 0 -1
    outer loop
      vertex 31.5451 -4.75528 -10
      vertex 30 -7.5 -10
      vertex 30.9369 -4.91144 -10
    endloop
  endfacet
  facet normal 0 0 -1
    outer loop
      vertex 30.9369 -4.91144 -10
      vertex 30 -7.5 -10
      vertex 30.314 -4.99013 -10
    endloop
  endfacet
  facet normal -0 0 -1
    outer loop
      vertex 30.314 -4.99013 -10
      vertex 30 -7.5 -10
      vertex 30 -4.99013 -10
    endloop
  endfacet
  facet normal 0 -1 0
    outer loop
      vertex 30 -7.5 -10
      vertex 37.5 -7.5 10
      vertex 30 -7.5 10
    endloop
  endfacet
  facet normal 0 -1 -0
    outer loop
      vertex 37.5 -7.5 10
      vertex 30 -7.5 -10
      vertex 37.5 -7.5 -10
    endloop
  endfacet
  facet normal -0.982288 0.18738 0
    outer loop
      vertex 34.8429 -1.24345 -10
      vertex 34.9606 -0.626666 10
      vertex 34.9606 -0.626666 -10
    endloop
  endfacet
  facet normal -0.982288 0.18738 0
    outer loop
      vertex 34.9606 -0.626666 10
      vertex 34.8429 -1.24345 -10
      vertex 34.8429 -1.24345 10
    endloop
  endfacet
  facet normal -0.481753 0.876307 0
    outer loop
      vertex 32.6791 -4.22164 -10
      vertex 32.1289 -4.52413 10
      vertex 32.6791 -4.22164 10
    endloop
  endfacet
  facet normal -0.481753 0.876307 0
    outer loop
      vertex 32.1289 -4.52413 10
      vertex 32.6791 -4.22164 -10
      vertex 32.1289 -4.52413 -10
    endloop
  endfacet
  facet normal -0.998027 0.062794 0
    outer loop
      vertex 34.9606 -0.626666 -10
      vertex 35 0 10
      vertex 35 0 -10
    endloop
  endfacet
  facet normal -0.998027 0.062794 0
    outer loop
      vertex 35 0 10
      vertex 34.9606 -0.626666 -10
      vertex 34.9606 -0.626666 10
    endloop
  endfacet
  facet normal -0.770513 0.637424 0
    outer loop
      vertex 33.6448 -3.42274 -10
      vertex 34.0451 -2.93893 10
      vertex 34.0451 -2.93893 -10
    endloop
  endfacet
  facet normal -0.770513 0.637424 0
    outer loop
      vertex 34.0451 -2.93893 10
      vertex 33.6448 -3.42274 -10
      vertex 33.6448 -3.42274 10
    endloop
  endfacet
  facet normal -0.125333 0.992115 0
    outer loop
      vertex 30.9369 -4.91144 -10
      vertex 30.314 -4.99013 10
      vertex 30.9369 -4.91144 10
    endloop
  endfacet
  facet normal -0.125333 0.992115 0
    outer loop
      vertex 30.314 -4.99013 10
      vertex 30.9369 -4.91144 -10
      vertex 30.314 -4.99013 -10
    endloop
  endfacet
  facet normal -0.904827 0.425779 0
    outer loop
      vertex 34.3815 -2.40877 -10
      vertex 34.6489 -1.84062 10
      vertex 34.6489 -1.84062 -10
    endloop
  endfacet
  facet normal -0.904827 0.425779 0
    outer loop
      vertex 34.6489 -1.84062 10
      vertex 34.3815 -2.40877 -10
      vertex 34.3815 -2.40877 10
    endloop
  endfacet
  facet normal -0.951056 0.309019 0
    outer loop
      vertex 34.6489 -1.84062 -10
      vertex 34.8429 -1.24345 10
      vertex 34.8429 -1.24345 -10
    endloop
  endfacet
  facet normal -0.951056 0.309019 0
    outer loop
      vertex 34.8429 -1.24345 10
      vertex 34.6489 -1.84062 -10
      vertex 34.6489 -1.84062 10
    endloop
  endfacet
  facet normal -0.844331 0.535823 0
    outer loop
      vertex 34.0451 -2.93893 -10
      vertex 34.3815 -2.40877 10
      vertex 34.3815 -2.40877 -10
    endloop
  endfacet
  facet normal -0.844331 0.535823 0
    outer loop
      vertex 34.3815 -2.40877 10
      vertex 34.0451 -2.93893 -10
      vertex 34.0451 -2.93893 10
    endloop
  endfacet
  facet normal -0.368127 0.929776 0
    outer loop
      vertex 32.1289 -4.52413 -10
      vertex 31.5451 -4.75528 10
      vertex 32.1289 -4.52413 10
    endloop
  endfacet
  facet normal -0.368127 0.929776 0
    outer loop
      vertex 31.5451 -4.75528 10
      vertex 32.1289 -4.52413 -10
      vertex 31.5451 -4.75528 -10
    endloop
  endfacet
  facet normal -0.248689 0.968583 0
    outer loop
      vertex 31.5451 -4.75528 -10
      vertex 30.9369 -4.91144 10
      vertex 31.5451 -4.75528 10
    endloop
  endfacet
  facet normal -0.248689 0.968583 0
    outer loop
      vertex 30.9369 -4.91144 10
      vertex 31.5451 -4.75528 -10
      vertex 30.9369 -4.91144 -10
    endloop
  endfacet
  facet normal -0.684545 0.72897 0
    outer loop
      vertex 33.6448 -3.42274 -10
      vertex 33.1871 -3.85257 10
      vertex 33.6448 -3.42274 10
    endloop
  endfacet
  facet normal -0.684545 0.72897 0
    outer loop
      vertex 33.1871 -3.85257 10
      vertex 33.6448 -3.42274 -10
      vertex 33.1871 -3.85257 -10
    endloop
  endfacet
  facet normal 0 1 -0
    outer loop
      vertex 30.314 -4.99013 -10
      vertex 30 -4.99013 10
      vertex 30.314 -4.99013 10
    endloop
  endfacet
  facet normal 0 1 0
    outer loop
      vertex 30 -4.99013 10
      vertex 30.314 -4.99013 -10
      vertex 30 -4.99013 -10
    endloop
  endfacet
  facet normal -0.587786 0.809016 0
    outer loop
      vertex 33.1871 -3.85257 -10
      vertex 32.6791 -4.22164 10
      vertex 33.1871 -3.85257 10
    endloop
  endfacet
  facet normal -0.587786 0.809016 0
    outer loop
      vertex 32.6791 -4.22164 10
      vertex 33.1871 -3.85257 -10
      vertex 32.6791 -4.22164 -10
    endloop
  endfacet
  facet normal 0 1 -0
    outer loop
      vertex 37.5 0 -10
      vertex 35 0 10
      vertex 37.5 0 10
    endloop
  endfacet
  facet normal 0 1 0
    outer loop
      vertex 35 0 10
      vertex 37.5 0 -10
      vertex 35 0 -10
    endloop
  endfacet
  facet normal -1 0 0
    outer loop
      vertex 30 -7.5 -10
      vertex 30 -4.99013 10
      vertex 30 -4.99013 -10
    endloop
  endfacet
  facet normal -1 -0 0
    outer loop
      vertex 30 -4.99013 10
      vertex 30 -7.5 -10
      vertex 30 -7.5 10
    endloop
  endfacet
  facet normal -1 0 0
    outer loop
      vertex 51.5 -8.5 -10
      vertex 51.5 0 10
      vertex 51.5 0 -10
    endloop
  endfacet
  facet normal -1 -0 0
    outer loop
      vertex 51.5 0 10
      vertex 51.5 -8.5 -10
      vertex 51.5 -8.5 10
    endloop
  endfacet
  facet normal 0 0 1
    outer loop
      vertex 67.9369 -1.00267 10
      vertex 68.5 0 10
      vertex 68 0 10
    endloop
  endfacet
  facet normal 0 0 1
    outer loop
      vertex 67.7487 -1.98952 10
      vertex 68.5 0 10
      vertex 67.9369 -1.00267 10
    endloop
  endfacet
  facet normal 0 0 1
    outer loop
      vertex 68.5 0 10
      vertex 67.7487 -1.98952 10
      vertex 68.5 -8.5 10
    endloop
  endfacet
  facet normal -0 0 1
    outer loop
      vertex 67.4382 -2.945 10
      vertex 68.5 -8.5 10
      vertex 67.7487 -1.98952 10
    endloop
  endfacet
  facet normal -0 0 1
    outer loop
      vertex 67.0105 -3.85403 10
      vertex 68.5 -8.5 10
      vertex 67.4382 -2.945 10
    endloop
  endfacet
  facet normal -0 0 1
    outer loop
      vertex 66.4721 -4.70228 10
      vertex 68.5 -8.5 10
      vertex 67.0105 -3.85403 10
    endloop
  endfacet
  facet normal -0 0 1
    outer loop
      vertex 65.8317 -5.47638 10
      vertex 68.5 -8.5 10
      vertex 66.4721 -4.70228 10
    endloop
  endfacet
  facet normal -0 0 1
    outer loop
      vertex 65.0994 -6.16411 10
      vertex 68.5 -8.5 10
      vertex 65.8317 -5.47638 10
    endloop
  endfacet
  facet normal -0 0 1
    outer loop
      vertex 64.2866 -6.75462 10
      vertex 68.5 -8.5 10
      vertex 65.0994 -6.16411 10
    endloop
  endfacet
  facet normal -0 0 1
    outer loop
      vertex 63.4062 -7.23862 10
      vertex 68.5 -8.5 10
      vertex 64.2866 -6.75462 10
    endloop
  endfacet
  facet normal -0 0 1
    outer loop
      vertex 62.4721 -7.60845 10
      vertex 68.5 -8.5 10
      vertex 63.4062 -7.23862 10
    endloop
  endfacet
  facet normal -0 0 1
    outer loop
      vertex 61.4991 -7.8583 10
      vertex 68.5 -8.5 10
      vertex 62.4721 -7.60845 10
    endloop
  endfacet
  facet normal -0 0 1
    outer loop
      vertex 60.5023 -7.98421 10
      vertex 68.5 -8.5 10
      vertex 61.4991 -7.8583 10
    endloop
  endfacet
  facet normal -0 0 1
    outer loop
      vertex 59.4977 -7.98421 10
      vertex 68.5 -8.5 10
      vertex 60.5023 -7.98421 10
    endloop
  endfacet
  facet normal -0 0 1
    outer loop
      vertex 51.5 0 10
      vertex 52.0631 -1.00267 10
      vertex 52 0 10
    endloop
  endfacet
  facet normal 0 0 1
    outer loop
      vertex 51.5 0 10
      vertex 52.2513 -1.98952 10
      vertex 52.0631 -1.00267 10
    endloop
  endfacet
  facet normal 0 0 1
    outer loop
      vertex 51.5 -8.5 10
      vertex 52.2513 -1.98952 10
      vertex 51.5 0 10
    endloop
  endfacet
  facet normal 0 0 1
    outer loop
      vertex 59.4977 -7.98421 10
      vertex 51.5 -8.5 10
      vertex 68.5 -8.5 10
    endloop
  endfacet
  facet normal 0 0 1
    outer loop
      vertex 58.5009 -7.8583 10
      vertex 51.5 -8.5 10
      vertex 59.4977 -7.98421 10
    endloop
  endfacet
  facet normal 0 0 1
    outer loop
      vertex 57.5279 -7.60845 10
      vertex 51.5 -8.5 10
      vertex 58.5009 -7.8583 10
    endloop
  endfacet
  facet normal 0 0 1
    outer loop
      vertex 56.5938 -7.23862 10
      vertex 51.5 -8.5 10
      vertex 57.5279 -7.60845 10
    endloop
  endfacet
  facet normal 0 0 1
    outer loop
      vertex 55.7134 -6.75462 10
      vertex 51.5 -8.5 10
      vertex 56.5938 -7.23862 10
    endloop
  endfacet
  facet normal 0 0 1
    outer loop
      vertex 54.9006 -6.16411 10
      vertex 51.5 -8.5 10
      vertex 55.7134 -6.75462 10
    endloop
  endfacet
  facet normal 0 0 1
    outer loop
      vertex 54.1683 -5.47638 10
      vertex 51.5 -8.5 10
      vertex 54.9006 -6.16411 10
    endloop
  endfacet
  facet normal 0 0 1
    outer loop
      vertex 53.5279 -4.70228 10
      vertex 51.5 -8.5 10
      vertex 54.1683 -5.47638 10
    endloop
  endfacet
  facet normal 0 0 1
    outer loop
      vertex 52.9895 -3.85403 10
      vertex 51.5 -8.5 10
      vertex 53.5279 -4.70228 10
    endloop
  endfacet
  facet normal 0 0 1
    outer loop
      vertex 52.5618 -2.945 10
      vertex 51.5 -8.5 10
      vertex 52.9895 -3.85403 10
    endloop
  endfacet
  facet normal 0 0 1
    outer loop
      vertex 52.2513 -1.98952 10
      vertex 51.5 -8.5 10
      vertex 52.5618 -2.945 10
    endloop
  endfacet
  facet normal 1 -0 0
    outer loop
      vertex 68.5 -8.5 10
      vertex 68.5 0 -10
      vertex 68.5 0 10
    endloop
  endfacet
  facet normal 1 0 0
    outer loop
      vertex 68.5 0 -10
      vertex 68.5 -8.5 10
      vertex 68.5 -8.5 -10
    endloop
  endfacet
  facet normal 0 0 -1
    outer loop
      vertex 67.7487 -1.98952 -10
      vertex 68.5 0 -10
      vertex 68.5 -8.5 -10
    endloop
  endfacet
  facet normal -0 0 -1
    outer loop
      vertex 68.5 0 -10
      vertex 67.9369 -1.00267 -10
      vertex 68 0 -10
    endloop
  endfacet
  facet normal 0 0 -1
    outer loop
      vertex 68.5 0 -10
      vertex 67.7487 -1.98952 -10
      vertex 67.9369 -1.00267 -10
    endloop
  endfacet
  facet normal 0 0 -1
    outer loop
      vertex 68.5 -8.5 -10
      vertex 67.4382 -2.945 -10
      vertex 67.7487 -1.98952 -10
    endloop
  endfacet
  facet normal 0 0 -1
    outer loop
      vertex 68.5 -8.5 -10
      vertex 67.0105 -3.85403 -10
      vertex 67.4382 -2.945 -10
    endloop
  endfacet
  facet normal 0 0 -1
    outer loop
      vertex 68.5 -8.5 -10
      vertex 66.4721 -4.70228 -10
      vertex 67.0105 -3.85403 -10
    endloop
  endfacet
  facet normal 0 0 -1
    outer loop
      vertex 68.5 -8.5 -10
      vertex 65.8317 -5.47638 -10
      vertex 66.4721 -4.70228 -10
    endloop
  endfacet
  facet normal 0 0 -1
    outer loop
      vertex 68.5 -8.5 -10
      vertex 65.0994 -6.16411 -10
      vertex 65.8317 -5.47638 -10
    endloop
  endfacet
  facet normal 0 0 -1
    outer loop
      vertex 68.5 -8.5 -10
      vertex 64.2866 -6.75462 -10
      vertex 65.0994 -6.16411 -10
    endloop
  endfacet
  facet normal 0 0 -1
    outer loop
      vertex 68.5 -8.5 -10
      vertex 63.4062 -7.23862 -10
      vertex 64.2866 -6.75462 -10
    endloop
  endfacet
  facet normal 0 0 -1
    outer loop
      vertex 68.5 -8.5 -10
      vertex 62.4721 -7.60845 -10
      vertex 63.4062 -7.23862 -10
    endloop
  endfacet
  facet normal 0 0 -1
    outer loop
      vertex 68.5 -8.5 -10
      vertex 61.4991 -7.8583 -10
      vertex 62.4721 -7.60845 -10
    endloop
  endfacet
  facet normal 0 0 -1
    outer loop
      vertex 68.5 -8.5 -10
      vertex 60.5023 -7.98421 -10
      vertex 61.4991 -7.8583 -10
    endloop
  endfacet
  facet normal 0 0 -1
    outer loop
      vertex 68.5 -8.5 -10
      vertex 59.4977 -7.98421 -10
      vertex 60.5023 -7.98421 -10
    endloop
  endfacet
  facet normal 0 0 -1
    outer loop
      vertex 51.5 -8.5 -10
      vertex 59.4977 -7.98421 -10
      vertex 68.5 -8.5 -10
    endloop
  endfacet
  facet normal 0 0 -1
    outer loop
      vertex 51.5 -8.5 -10
      vertex 58.5009 -7.8583 -10
      vertex 59.4977 -7.98421 -10
    endloop
  endfacet
  facet normal 0 0 -1
    outer loop
      vertex 51.5 -8.5 -10
      vertex 57.5279 -7.60845 -10
      vertex 58.5009 -7.8583 -10
    endloop
  endfacet
  facet normal 0 0 -1
    outer loop
      vertex 51.5 -8.5 -10
      vertex 56.5938 -7.23862 -10
      vertex 57.5279 -7.60845 -10
    endloop
  endfacet
  facet normal 0 0 -1
    outer loop
      vertex 51.5 -8.5 -10
      vertex 55.7134 -6.75462 -10
      vertex 56.5938 -7.23862 -10
    endloop
  endfacet
  facet normal 0 0 -1
    outer loop
      vertex 51.5 -8.5 -10
      vertex 54.9006 -6.16411 -10
      vertex 55.7134 -6.75462 -10
    endloop
  endfacet
  facet normal 0 0 -1
    outer loop
      vertex 51.5 -8.5 -10
      vertex 54.1683 -5.47638 -10
      vertex 54.9006 -6.16411 -10
    endloop
  endfacet
  facet normal 0 0 -1
    outer loop
      vertex 51.5 -8.5 -10
      vertex 53.5279 -4.70228 -10
      vertex 54.1683 -5.47638 -10
    endloop
  endfacet
  facet normal 0 0 -1
    outer loop
      vertex 51.5 -8.5 -10
      vertex 52.9895 -3.85403 -10
      vertex 53.5279 -4.70228 -10
    endloop
  endfacet
  facet normal 0 0 -1
    outer loop
      vertex 51.5 -8.5 -10
      vertex 52.5618 -2.945 -10
      vertex 52.9895 -3.85403 -10
    endloop
  endfacet
  facet normal 0 0 -1
    outer loop
      vertex 51.5 -8.5 -10
      vertex 52.2513 -1.98952 -10
      vertex 52.5618 -2.945 -10
    endloop
  endfacet
  facet normal 0 0 -1
    outer loop
      vertex 51.5 0 -10
      vertex 52.2513 -1.98952 -10
      vertex 51.5 -8.5 -10
    endloop
  endfacet
  facet normal 0 0 -1
    outer loop
      vertex 52.2513 -1.98952 -10
      vertex 51.5 0 -10
      vertex 52.0631 -1.00267 -10
    endloop
  endfacet
  facet normal 0 0 -1
    outer loop
      vertex 52.0631 -1.00267 -10
      vertex 51.5 0 -10
      vertex 52 0 -10
    endloop
  endfacet
  facet normal 0 -1 0
    outer loop
      vertex 51.5 -8.5 -10
      vertex 68.5 -8.5 10
      vertex 51.5 -8.5 10
    endloop
  endfacet
  facet normal 0 -1 -0
    outer loop
      vertex 68.5 -8.5 10
      vertex 51.5 -8.5 -10
      vertex 68.5 -8.5 -10
    endloop
  endfacet
  facet normal -0.998027 0.062788 0
    outer loop
      vertex 67.9369 -1.00267 -10
      vertex 68 0 10
      vertex 68 0 -10
    endloop
  endfacet
  facet normal -0.998027 0.062788 0
    outer loop
      vertex 68 0 10
      vertex 67.9369 -1.00267 -10
      vertex 67.9369 -1.00267 10
    endloop
  endfacet
  facet normal -0.368125 0.929776 0
    outer loop
      vertex 63.4062 -7.23862 -10
      vertex 62.4721 -7.60845 10
      vertex 63.4062 -7.23862 10
    endloop
  endfacet
  facet normal -0.368125 0.929776 0
    outer loop
      vertex 62.4721 -7.60845 10
      vertex 63.4062 -7.23862 -10
      vertex 62.4721 -7.60845 -10
    endloop
  endfacet
  facet normal -0.587786 0.809016 0
    outer loop
      vertex 65.0994 -6.16411 -10
      vertex 64.2866 -6.75462 10
      vertex 65.0994 -6.16411 10
    endloop
  endfacet
  facet normal -0.587786 0.809016 0
    outer loop
      vertex 64.2866 -6.75462 10
      vertex 65.0994 -6.16411 -10
      vertex 64.2866 -6.75462 -10
    endloop
  endfacet
  facet normal -0.770512 0.637425 0
    outer loop
      vertex 65.8317 -5.47638 -10
      vertex 66.4721 -4.70228 10
      vertex 66.4721 -4.70228 -10
    endloop
  endfacet
  facet normal -0.770512 0.637425 0
    outer loop
      vertex 66.4721 -4.70228 10
      vertex 65.8317 -5.47638 -10
      vertex 65.8317 -5.47638 10
    endloop
  endfacet
  facet normal 0.125333 0.992115 -0
    outer loop
      vertex 59.4977 -7.98421 -10
      vertex 58.5009 -7.8583 10
      vertex 59.4977 -7.98421 10
    endloop
  endfacet
  facet normal 0.125333 0.992115 0
    outer loop
      vertex 58.5009 -7.8583 10
      vertex 59.4977 -7.98421 -10
      vertex 58.5009 -7.8583 -10
    endloop
  endfacet
  facet normal -0.248689 0.968583 0
    outer loop
      vertex 62.4721 -7.60845 -10
      vertex 61.4991 -7.8583 10
      vertex 62.4721 -7.60845 10
    endloop
  endfacet
  facet normal -0.248689 0.968583 0
    outer loop
      vertex 61.4991 -7.8583 10
      vertex 62.4721 -7.60845 -10
      vertex 61.4991 -7.8583 -10
    endloop
  endfacet
  facet normal 0.248689 0.968583 -0
    outer loop
      vertex 58.5009 -7.8583 -10
      vertex 57.5279 -7.60845 10
      vertex 58.5009 -7.8583 10
    endloop
  endfacet
  facet normal 0.248689 0.968583 0
    outer loop
      vertex 57.5279 -7.60845 10
      vertex 58.5009 -7.8583 -10
      vertex 57.5279 -7.60845 -10
    endloop
  endfacet
  facet normal 0.998027 0.0627918 0
    outer loop
      vertex 52.0631 -1.00267 10
      vertex 52 0 -10
      vertex 52 0 10
    endloop
  endfacet
  facet normal 0.998027 0.0627918 0
    outer loop
      vertex 52 0 -10
      vertex 52.0631 -1.00267 10
      vertex 52.0631 -1.00267 -10
    endloop
  endfacet
  facet normal 0.982287 0.187381 0
    outer loop
      vertex 52.2513 -1.98952 10
      vertex 52.0631 -1.00267 -10
      vertex 52.0631 -1.00267 10
    endloop
  endfacet
  facet normal 0.982287 0.187381 0
    outer loop
      vertex 52.0631 -1.00267 -10
      vertex 52.2513 -1.98952 10
      vertex 52.2513 -1.98952 -10
    endloop
  endfacet
  facet normal -0.125333 0.992115 0
    outer loop
      vertex 61.4991 -7.8583 -10
      vertex 60.5023 -7.98421 10
      vertex 61.4991 -7.8583 10
    endloop
  endfacet
  facet normal -0.125333 0.992115 0
    outer loop
      vertex 60.5023 -7.98421 10
      vertex 61.4991 -7.8583 -10
      vertex 60.5023 -7.98421 -10
    endloop
  endfacet
  facet normal -0.982287 0.187384 0
    outer loop
      vertex 67.7487 -1.98952 -10
      vertex 67.9369 -1.00267 10
      vertex 67.9369 -1.00267 -10
    endloop
  endfacet
  facet normal -0.982287 0.187384 0
    outer loop
      vertex 67.9369 -1.00267 10
      vertex 67.7487 -1.98952 -10
      vertex 67.7487 -1.98952 10
    endloop
  endfacet
  facet normal -0.951056 0.309019 0
    outer loop
      vertex 67.4382 -2.945 -10
      vertex 67.7487 -1.98952 10
      vertex 67.7487 -1.98952 -10
    endloop
  endfacet
  facet normal -0.951056 0.309019 0
    outer loop
      vertex 67.7487 -1.98952 10
      vertex 67.4382 -2.945 -10
      vertex 67.4382 -2.945 10
    endloop
  endfacet
  facet normal -0.904827 0.425778 0
    outer loop
      vertex 67.0105 -3.85403 -10
      vertex 67.4382 -2.945 10
      vertex 67.4382 -2.945 -10
    endloop
  endfacet
  facet normal -0.904827 0.425778 0
    outer loop
      vertex 67.4382 -2.945 10
      vertex 67.0105 -3.85403 -10
      vertex 67.0105 -3.85403 10
    endloop
  endfacet
  facet normal -0.844329 0.535825 0
    outer loop
      vertex 66.4721 -4.70228 -10
      vertex 67.0105 -3.85403 10
      vertex 67.0105 -3.85403 -10
    endloop
  endfacet
  facet normal -0.844329 0.535825 0
    outer loop
      vertex 67.0105 -3.85403 10
      vertex 66.4721 -4.70228 -10
      vertex 66.4721 -4.70228 10
    endloop
  endfacet
  facet normal 0.951056 0.309019 0
    outer loop
      vertex 52.5618 -2.945 10
      vertex 52.2513 -1.98952 -10
      vertex 52.2513 -1.98952 10
    endloop
  endfacet
  facet normal 0.951056 0.309019 0
    outer loop
      vertex 52.2513 -1.98952 -10
      vertex 52.5618 -2.945 10
      vertex 52.5618 -2.945 -10
    endloop
  endfacet
  facet normal 0.770512 0.637425 0
    outer loop
      vertex 54.1683 -5.47638 10
      vertex 53.5279 -4.70228 -10
      vertex 53.5279 -4.70228 10
    endloop
  endfacet
  facet normal 0.770512 0.637425 0
    outer loop
      vertex 53.5279 -4.70228 -10
      vertex 54.1683 -5.47638 10
      vertex 54.1683 -5.47638 -10
    endloop
  endfacet
  facet normal -0.684545 0.72897 0
    outer loop
      vertex 65.8317 -5.47638 -10
      vertex 65.0994 -6.16411 10
      vertex 65.8317 -5.47638 10
    endloop
  endfacet
  facet normal -0.684545 0.72897 0
    outer loop
      vertex 65.0994 -6.16411 10
      vertex 65.8317 -5.47638 -10
      vertex 65.0994 -6.16411 -10
    endloop
  endfacet
  facet normal -0.481755 0.876306 0
    outer loop
      vertex 64.2866 -6.75462 -10
      vertex 63.4062 -7.23862 10
      vertex 64.2866 -6.75462 10
    endloop
  endfacet
  facet normal -0.481755 0.876306 0
    outer loop
      vertex 63.4062 -7.23862 10
      vertex 64.2866 -6.75462 -10
      vertex 63.4062 -7.23862 -10
    endloop
  endfacet
  facet normal 0.684547 0.728969 -0
    outer loop
      vertex 54.9006 -6.16411 -10
      vertex 54.1683 -5.47638 10
      vertex 54.9006 -6.16411 10
    endloop
  endfacet
  facet normal 0.684547 0.728969 0
    outer loop
      vertex 54.1683 -5.47638 10
      vertex 54.9006 -6.16411 -10
      vertex 54.1683 -5.47638 -10
    endloop
  endfacet
  facet normal 0 1 -0
    outer loop
      vertex 60.5023 -7.98421 -10
      vertex 59.4977 -7.98421 10
      vertex 60.5023 -7.98421 10
    endloop
  endfacet
  facet normal 0 1 0
    outer loop
      vertex 59.4977 -7.98421 10
      vertex 60.5023 -7.98421 -10
      vertex 59.4977 -7.98421 -10
    endloop
  endfacet
  facet normal 0.481755 0.876306 -0
    outer loop
      vertex 56.5938 -7.23862 -10
      vertex 55.7134 -6.75462 10
      vertex 56.5938 -7.23862 10
    endloop
  endfacet
  facet normal 0.481755 0.876306 0
    outer loop
      vertex 55.7134 -6.75462 10
      vertex 56.5938 -7.23862 -10
      vertex 55.7134 -6.75462 -10
    endloop
  endfacet
  facet normal 0.844329 0.535825 0
    outer loop
      vertex 53.5279 -4.70228 10
      vertex 52.9895 -3.85403 -10
      vertex 52.9895 -3.85403 10
    endloop
  endfacet
  facet normal 0.844329 0.535825 0
    outer loop
      vertex 52.9895 -3.85403 -10
      vertex 53.5279 -4.70228 10
      vertex 53.5279 -4.70228 -10
    endloop
  endfacet
  facet normal 0.904827 0.425778 0
    outer loop
      vertex 52.9895 -3.85403 10
      vertex 52.5618 -2.945 -10
      vertex 52.5618 -2.945 10
    endloop
  endfacet
  facet normal 0.904827 0.425778 0
    outer loop
      vertex 52.5618 -2.945 -10
      vertex 52.9895 -3.85403 10
      vertex 52.9895 -3.85403 -10
    endloop
  endfacet
  facet normal 0.587785 0.809018 -0
    outer loop
      vertex 55.7134 -6.75462 -10
      vertex 54.9006 -6.16411 10
      vertex 55.7134 -6.75462 10
    endloop
  endfacet
  facet normal 0.587785 0.809018 0
    outer loop
      vertex 54.9006 -6.16411 10
      vertex 55.7134 -6.75462 -10
      vertex 54.9006 -6.16411 -10
    endloop
  endfacet
  facet normal 0.368125 0.929776 -0
    outer loop
      vertex 57.5279 -7.60845 -10
      vertex 56.5938 -7.23862 10
      vertex 57.5279 -7.60845 10
    endloop
  endfacet
  facet normal 0.368125 0.929776 0
    outer loop
      vertex 56.5938 -7.23862 10
      vertex 57.5279 -7.60845 -10
      vertex 56.5938 -7.23862 -10
    endloop
  endfacet
  facet normal 0 1 -0
    outer loop
      vertex 52 0 -10
      vertex 51.5 0 10
      vertex 52 0 10
    endloop
  endfacet
  facet normal 0 1 0
    outer loop
      vertex 51.5 0 10
      vertex 52 0 -10
      vertex 51.5 0 -10
    endloop
  endfacet
  facet normal 0 1 -0
    outer loop
      vertex 68.5 0 -10
      vertex 68 0 10
      vertex 68.5 0 10
    endloop
  endfacet
  facet normal 0 1 0
    outer loop
      vertex 68 0 10
      vertex 68.5 0 -10
      vertex 68 0 -10
    endloop
  endfacet
  facet normal -1 0 0
    outer loop
      vertex 82.5 -7.5 -10
      vertex 82.5 7.5 10
      vertex 82.5 7.5 -10
    endloop
  endfacet
  facet normal -1 -0 0
    outer loop
      vertex 82.5 7.5 10
      vertex 82.5 -7.5 -10
      vertex 82.5 -7.5 10
    endloop
  endfacet
  facet normal 0 0 1
    outer loop
      vertex 90 7.5 10
      vertex 89.8116 2.99408 10
      vertex 90 2.99408 10
    endloop
  endfacet
  facet normal 0 0 1
    outer loop
      vertex 90 7.5 10
      vertex 89.4379 2.94686 10
      vertex 89.8116 2.99408 10
    endloop
  endfacet
  facet normal 0 0 1
    outer loop
      vertex 90 7.5 10
      vertex 89.073 2.85317 10
      vertex 89.4379 2.94686 10
    endloop
  endfacet
  facet normal 0 0 1
    outer loop
      vertex 90 7.5 10
      vertex 88.7227 2.71448 10
      vertex 89.073 2.85317 10
    endloop
  endfacet
  facet normal 0 0 1
    outer loop
      vertex 90 7.5 10
      vertex 88.3925 2.53298 10
      vertex 88.7227 2.71448 10
    endloop
  endfacet
  facet normal -0 0 1
    outer loop
      vertex 82.5 7.5 10
      vertex 88.3925 2.53298 10
      vertex 90 7.5 10
    endloop
  endfacet
  facet normal 0 0 1
    outer loop
      vertex 88.3925 2.53298 10
      vertex 82.5 7.5 10
      vertex 88.0877 2.31154 10
    endloop
  endfacet
  facet normal 0 0 1
    outer loop
      vertex 88.0877 2.31154 10
      vertex 82.5 7.5 10
      vertex 87.8131 2.05364 10
    endloop
  endfacet
  facet normal 0 0 1
    outer loop
      vertex 87.8131 2.05364 10
      vertex 82.5 7.5 10
      vertex 87.573 1.76336 10
    endloop
  endfacet
  facet normal 0 0 1
    outer loop
      vertex 87.573 1.76336 10
      vertex 82.5 7.5 10
      vertex 87.3711 1.44526 10
    endloop
  endfacet
  facet normal 0 0 1
    outer loop
      vertex 87.0237 0.375999 10
      vertex 82.5 7.5 10
      vertex 87 0 10
    endloop
  endfacet
  facet normal 0 0 1
    outer loop
      vertex 87.0943 0.746069 10
      vertex 82.5 7.5 10
      vertex 87.0237 0.375999 10
    endloop
  endfacet
  facet normal 0 0 1
    outer loop
      vertex 87.2107 1.10437 10
      vertex 82.5 7.5 10
      vertex 87.0943 0.746069 10
    endloop
  endfacet
  facet normal 0 0 1
    outer loop
      vertex 87.3711 1.44526 10
      vertex 82.5 7.5 10
      vertex 87.2107 1.10437 10
    endloop
  endfacet
  facet normal 0 0 1
    outer loop
      vertex 92.9763 -0.375999 10
      vertex 97.5 0 10
      vertex 93 0 10
    endloop
  endfacet
  facet normal 0 0 1
    outer loop
      vertex 92.9057 -0.746069 10
      vertex 97.5 0 10
      vertex 92.9763 -0.375999 10
    endloop
  endfacet
  facet normal 0 0 1
    outer loop
      vertex 92.7893 -1.10437 10
      vertex 97.5 0 10
      vertex 92.9057 -0.746069 10
    endloop
  endfacet
  facet normal 0 0 1
    outer loop
      vertex 92.6289 -1.44526 10
      vertex 97.5 0 10
      vertex 92.7893 -1.10437 10
    endloop
  endfacet
  facet normal 0 0 1
    outer loop
      vertex 97.5 0 10
      vertex 92.6289 -1.44526 10
      vertex 97.5 -7.5 10
    endloop
  endfacet
  facet normal -0 0 1
    outer loop
      vertex 92.427 -1.76336 10
      vertex 97.5 -7.5 10
      vertex 92.6289 -1.44526 10
    endloop
  endfacet
  facet normal -0 0 1
    outer loop
      vertex 92.1869 -2.05364 10
      vertex 97.5 -7.5 10
      vertex 92.427 -1.76336 10
    endloop
  endfacet
  facet normal -0 0 1
    outer loop
      vertex 91.9123 -2.31154 10
      vertex 97.5 -7.5 10
      vertex 92.1869 -2.05364 10
    endloop
  endfacet
  facet normal -0 0 1
    outer loop
      vertex 91.6075 -2.53298 10
      vertex 97.5 -7.5 10
      vertex 91.9123 -2.31154 10
    endloop
  endfacet
  facet normal -0 0 1
    outer loop
      vertex 91.2773 -2.71448 10
      vertex 97.5 -7.5 10
      vertex 91.6075 -2.53298 10
    endloop
  endfacet
  facet normal -0 0 1
    outer loop
      vertex 90.927 -2.85317 10
      vertex 97.5 -7.5 10
      vertex 91.2773 -2.71448 10
    endloop
  endfacet
  facet normal -0 0 1
    outer loop
      vertex 90.5621 -2.94686 10
      vertex 97.5 -7.5 10
      vertex 90.927 -2.85317 10
    endloop
  endfacet
  facet normal -0 0 1
    outer loop
      vertex 90.1884 -2.99408 10
      vertex 97.5 -7.5 10
      vertex 90.5621 -2.94686 10
    endloop
  endfacet
  facet normal -0 0 1
    outer loop
      vertex 89.8116 -2.99408 10
      vertex 97.5 -7.5 10
      vertex 90.1884 -2.99408 10
    endloop
  endfacet
  facet normal 0 0 1
    outer loop
      vertex 82.5 -7.5 10
      vertex 89.8116 -2.99408 10
      vertex 89.4379 -2.94686 10
    endloop
  endfacet
  facet normal 0 0 1
    outer loop
      vertex 82.5 -7.5 10
      vertex 89.4379 -2.94686 10
      vertex 89.073 -2.85317 10
    endloop
  endfacet
  facet normal 0 0 1
    outer loop
      vertex 82.5 -7.5 10
      vertex 89.073 -2.85317 10
      vertex 88.7227 -2.71448 10
    endloop
  endfacet
  facet normal 0 0 1
    outer loop
      vertex 82.5 -7.5 10
      vertex 87 0 10
      vertex 82.5 7.5 10
    endloop
  endfacet
  facet normal 0 0 1
    outer loop
      vertex 87 0 10
      vertex 82.5 -7.5 10
      vertex 87.0237 -0.375999 10
    endloop
  endfacet
  facet normal 0 0 1
    outer loop
      vertex 87.0237 -0.375999 10
      vertex 82.5 -7.5 10
      vertex 87.0943 -0.746069 10
    endloop
  endfacet
  facet normal 0 0 1
    outer loop
      vertex 87.0943 -0.746069 10
      vertex 82.5 -7.5 10
      vertex 87.2107 -1.10437 10
    endloop
  endfacet
  facet normal 0 0 1
    outer loop
      vertex 89.8116 -2.99408 10
      vertex 82.5 -7.5 10
      vertex 97.5 -7.5 10
    endloop
  endfacet
  facet normal 0 0 1
    outer loop
      vertex 88.3925 -2.53298 10
      vertex 82.5 -7.5 10
      vertex 88.7227 -2.71448 10
    endloop
  endfacet
  facet normal 0 0 1
    outer loop
      vertex 88.0877 -2.31154 10
      vertex 82.5 -7.5 10
      vertex 88.3925 -2.53298 10
    endloop
  endfacet
  facet normal 0 0 1
    outer loop
      vertex 87.8131 -2.05364 10
      vertex 82.5 -7.5 10
      vertex 88.0877 -2.31154 10
    endloop
  endfacet
  facet normal 0 0 1
    outer loop
      vertex 87.573 -1.76336 10
      vertex 82.5 -7.5 10
      vertex 87.8131 -2.05364 10
    endloop
  endfacet
  facet normal 0 0 1
    outer loop
      vertex 87.3711 -1.44526 10
      vertex 82.5 -7.5 10
      vertex 87.573 -1.76336 10
    endloop
  endfacet
  facet normal 0 0 1
    outer loop
      vertex 87.2107 -1.10437 10
      vertex 82.5 -7.5 10
      vertex 87.3711 -1.44526 10
    endloop
  endfacet
  facet normal 1 -0 0
    outer loop
      vertex 97.5 -7.5 10
      vertex 97.5 0 -10
      vertex 97.5 0 10
    endloop
  endfacet
  facet normal 1 0 0
    outer loop
      vertex 97.5 0 -10
      vertex 97.5 -7.5 10
      vertex 97.5 -7.5 -10
    endloop
  endfacet
  facet normal 0 1 -0
    outer loop
      vertex 90 7.5 -10
      vertex 82.5 7.5 10
      vertex 90 7.5 10
    endloop
  endfacet
  facet normal 0 1 0
    outer loop
      vertex 82.5 7.5 10
      vertex 90 7.5 -10
      vertex 82.5 7.5 -10
    endloop
  endfacet
  facet normal 0 0 -1
    outer loop
      vertex 92.6289 -1.44526 -10
      vertex 97.5 0 -10
      vertex 97.5 -7.5 -10
    endloop
  endfacet
  facet normal -0 0 -1
    outer loop
      vertex 97.5 0 -10
      vertex 92.9763 -0.375999 -10
      vertex 93 0 -10
    endloop
  endfacet
  facet normal 0 0 -1
    outer loop
      vertex 97.5 0 -10
      vertex 92.9057 -0.746069 -10
      vertex 92.9763 -0.375999 -10
    endloop
  endfacet
  facet normal 0 0 -1
    outer loop
      vertex 97.5 0 -10
      vertex 92.7893 -1.10437 -10
      vertex 92.9057 -0.746069 -10
    endloop
  endfacet
  facet normal 0 0 -1
    outer loop
      vertex 97.5 0 -10
      vertex 92.6289 -1.44526 -10
      vertex 92.7893 -1.10437 -10
    endloop
  endfacet
  facet normal 0 0 -1
    outer loop
      vertex 97.5 -7.5 -10
      vertex 92.427 -1.76336 -10
      vertex 92.6289 -1.44526 -10
    endloop
  endfacet
  facet normal 0 0 -1
    outer loop
      vertex 97.5 -7.5 -10
      vertex 92.1869 -2.05364 -10
      vertex 92.427 -1.76336 -10
    endloop
  endfacet
  facet normal 0 0 -1
    outer loop
      vertex 97.5 -7.5 -10
      vertex 91.9123 -2.31154 -10
      vertex 92.1869 -2.05364 -10
    endloop
  endfacet
  facet normal 0 0 -1
    outer loop
      vertex 97.5 -7.5 -10
      vertex 91.6075 -2.53298 -10
      vertex 91.9123 -2.31154 -10
    endloop
  endfacet
  facet normal 0 0 -1
    outer loop
      vertex 97.5 -7.5 -10
      vertex 91.2773 -2.71448 -10
      vertex 91.6075 -2.53298 -10
    endloop
  endfacet
  facet normal 0 0 -1
    outer loop
      vertex 97.5 -7.5 -10
      vertex 90.927 -2.85317 -10
      vertex 91.2773 -2.71448 -10
    endloop
  endfacet
  facet normal 0 0 -1
    outer loop
      vertex 97.5 -7.5 -10
      vertex 90.5621 -2.94686 -10
      vertex 90.927 -2.85317 -10
    endloop
  endfacet
  facet normal 0 0 -1
    outer loop
      vertex 97.5 -7.5 -10
      vertex 90.1884 -2.99408 -10
      vertex 90.5621 -2.94686 -10
    endloop
  endfacet
  facet normal 0 0 -1
    outer loop
      vertex 97.5 -7.5 -10
      vertex 89.8116 -2.99408 -10
      vertex 90.1884 -2.99408 -10
    endloop
  endfacet
  facet normal 0 0 -1
    outer loop
      vertex 82.5 -7.5 -10
      vertex 89.8116 -2.99408 -10
      vertex 97.5 -7.5 -10
    endloop
  endfacet
  facet normal -0 0 -1
    outer loop
      vertex 89.8116 -2.99408 -10
      vertex 82.5 -7.5 -10
      vertex 89.4379 -2.94686 -10
    endloop
  endfacet
  facet normal -0 0 -1
    outer loop
      vertex 89.4379 -2.94686 -10
      vertex 82.5 -7.5 -10
      vertex 89.073 -2.85317 -10
    endloop
  endfacet
  facet normal -0 0 -1
    outer loop
      vertex 87.0237 -0.375999 -10
      vertex 82.5 -7.5 -10
      vertex 87 0 -10
    endloop
  endfacet
  facet normal -0 0 -1
    outer loop
      vertex 87.0943 -0.746069 -10
      vertex 82.5 -7.5 -10
      vertex 87.0237 -0.375999 -10
    endloop
  endfacet
  facet normal -0 0 -1
    outer loop
      vertex 87.2107 -1.10437 -10
      vertex 82.5 -7.5 -10
      vertex 87.0943 -0.746069 -10
    endloop
  endfacet
  facet normal -0 0 -1
    outer loop
      vertex 87.3711 -1.44526 -10
      vertex 82.5 -7.5 -10
      vertex 87.2107 -1.10437 -10
    endloop
  endfacet
  facet normal -0 0 -1
    outer loop
      vertex 87.573 -1.76336 -10
      vertex 82.5 -7.5 -10
      vertex 87.3711 -1.44526 -10
    endloop
  endfacet
  facet normal -0 0 -1
    outer loop
      vertex 87.8131 -2.05364 -10
      vertex 82.5 -7.5 -10
      vertex 87.573 -1.76336 -10
    endloop
  endfacet
  facet normal -0 0 -1
    outer loop
      vertex 88.0877 -2.31154 -10
      vertex 82.5 -7.5 -10
      vertex 87.8131 -2.05364 -10
    endloop
  endfacet
  facet normal -0 0 -1
    outer loop
      vertex 88.3925 -2.53298 -10
      vertex 82.5 -7.5 -10
      vertex 88.0877 -2.31154 -10
    endloop
  endfacet
  facet normal -0 0 -1
    outer loop
      vertex 88.7227 -2.71448 -10
      vertex 82.5 -7.5 -10
      vertex 88.3925 -2.53298 -10
    endloop
  endfacet
  facet normal -0 0 -1
    outer loop
      vertex 89.073 -2.85317 -10
      vertex 82.5 -7.5 -10
      vertex 88.7227 -2.71448 -10
    endloop
  endfacet
  facet normal 0 0 -1
    outer loop
      vertex 89.8116 2.99408 -10
      vertex 90 7.5 -10
      vertex 90 2.99408 -10
    endloop
  endfacet
  facet normal 0 0 -1
    outer loop
      vertex 89.4379 2.94686 -10
      vertex 90 7.5 -10
      vertex 89.8116 2.99408 -10
    endloop
  endfacet
  facet normal 0 0 -1
    outer loop
      vertex 89.073 2.85317 -10
      vertex 90 7.5 -10
      vertex 89.4379 2.94686 -10
    endloop
  endfacet
  facet normal 0 0 -1
    outer loop
      vertex 88.7227 2.71448 -10
      vertex 90 7.5 -10
      vertex 89.073 2.85317 -10
    endloop
  endfacet
  facet normal 0 0 -1
    outer loop
      vertex 88.3925 2.53298 -10
      vertex 90 7.5 -10
      vertex 88.7227 2.71448 -10
    endloop
  endfacet
  facet normal 0 0 -1
    outer loop
      vertex 82.5 7.5 -10
      vertex 88.3925 2.53298 -10
      vertex 88.0877 2.31154 -10
    endloop
  endfacet
  facet normal 0 0 -1
    outer loop
      vertex 82.5 7.5 -10
      vertex 88.0877 2.31154 -10
      vertex 87.8131 2.05364 -10
    endloop
  endfacet
  facet normal 0 0 -1
    outer loop
      vertex 82.5 7.5 -10
      vertex 87.8131 2.05364 -10
      vertex 87.573 1.76336 -10
    endloop
  endfacet
  facet normal 0 0 -1
    outer loop
      vertex 82.5 7.5 -10
      vertex 87.573 1.76336 -10
      vertex 87.3711 1.44526 -10
    endloop
  endfacet
  facet normal 0 0 -1
    outer loop
      vertex 82.5 7.5 -10
      vertex 87.3711 1.44526 -10
      vertex 87.2107 1.10437 -10
    endloop
  endfacet
  facet normal 0 0 -1
    outer loop
      vertex 82.5 7.5 -10
      vertex 87 0 -10
      vertex 82.5 -7.5 -10
    endloop
  endfacet
  facet normal 0 0 -1
    outer loop
      vertex 87 0 -10
      vertex 82.5 7.5 -10
      vertex 87.0237 0.375999 -10
    endloop
  endfacet
  facet normal 0 0 -1
    outer loop
      vertex 87.0237 0.375999 -10
      vertex 82.5 7.5 -10
      vertex 87.0943 0.746069 -10
    endloop
  endfacet
  facet normal 0 0 -1
    outer loop
      vertex 87.0943 0.746069 -10
      vertex 82.5 7.5 -10
      vertex 87.2107 1.10437 -10
    endloop
  endfacet
  facet normal 0 0 -1
    outer loop
      vertex 88.3925 2.53298 -10
      vertex 82.5 7.5 -10
      vertex 90 7.5 -10
    endloop
  endfacet
  facet normal 0 -1 0
    outer loop
      vertex 82.5 -7.5 -10
      vertex 97.5 -7.5 10
      vertex 82.5 -7.5 10
    endloop
  endfacet
  facet normal 0 -1 -0
    outer loop
      vertex 97.5 -7.5 10
      vertex 82.5 -7.5 -10
      vertex 97.5 -7.5 -10
    endloop
  endfacet
  facet normal 0.951059 -0.30901 0
    outer loop
      vertex 87.0943 0.746069 10
      vertex 87.2107 1.10437 -10
      vertex 87.2107 1.10437 10
    endloop
  endfacet
  facet normal 0.951059 -0.30901 0
    outer loop
      vertex 87.2107 1.10437 -10
      vertex 87.0943 0.746069 10
      vertex 87.0943 0.746069 -10
    endloop
  endfacet
  facet normal 0.368125 -0.929776 0
    outer loop
      vertex 88.7227 2.71448 -10
      vertex 89.073 2.85317 10
      vertex 88.7227 2.71448 10
    endloop
  endfacet
  facet normal 0.368125 -0.929776 0
    outer loop
      vertex 89.073 2.85317 10
      vertex 88.7227 2.71448 -10
      vertex 89.073 2.85317 -10
    endloop
  endfacet
  facet normal 0.904829 -0.425776 0
    outer loop
      vertex 87.2107 1.10437 10
      vertex 87.3711 1.44526 -10
      vertex 87.3711 1.44526 10
    endloop
  endfacet
  facet normal 0.904829 -0.425776 0
    outer loop
      vertex 87.3711 1.44526 -10
      vertex 87.2107 1.10437 10
      vertex 87.2107 1.10437 -10
    endloop
  endfacet
  facet normal -0.998026 0.0627981 0
    outer loop
      vertex 92.9763 -0.375999 -10
      vertex 93 0 10
      vertex 93 0 -10
    endloop
  endfacet
  facet normal -0.998026 0.0627981 0
    outer loop
      vertex 93 0 10
      vertex 92.9763 -0.375999 -10
      vertex 92.9763 -0.375999 10
    endloop
  endfacet
  facet normal -0.368125 0.929776 0
    outer loop
      vertex 91.2773 -2.71448 -10
      vertex 90.927 -2.85317 10
      vertex 91.2773 -2.71448 10
    endloop
  endfacet
  facet normal -0.368125 0.929776 0
    outer loop
      vertex 90.927 -2.85317 10
      vertex 91.2773 -2.71448 -10
      vertex 90.927 -2.85317 -10
    endloop
  endfacet
  facet normal 0.770516 -0.637421 0
    outer loop
      vertex 87.573 1.76336 10
      vertex 87.8131 2.05364 -10
      vertex 87.8131 2.05364 10
    endloop
  endfacet
  facet normal 0.770516 -0.637421 0
    outer loop
      vertex 87.8131 2.05364 -10
      vertex 87.573 1.76336 10
      vertex 87.573 1.76336 -10
    endloop
  endfacet
  facet normal 0.684546 -0.728969 0
    outer loop
      vertex 87.8131 2.05364 -10
      vertex 88.0877 2.31154 10
      vertex 87.8131 2.05364 10
    endloop
  endfacet
  facet normal 0.684546 -0.728969 0
    outer loop
      vertex 88.0877 2.31154 10
      vertex 87.8131 2.05364 -10
      vertex 88.0877 2.31154 -10
    endloop
  endfacet
  facet normal 0.248689 0.968583 -0
    outer loop
      vertex 89.4379 -2.94686 -10
      vertex 89.073 -2.85317 10
      vertex 89.4379 -2.94686 10
    endloop
  endfacet
  facet normal 0.248689 0.968583 0
    outer loop
      vertex 89.073 -2.85317 10
      vertex 89.4379 -2.94686 -10
      vertex 89.073 -2.85317 -10
    endloop
  endfacet
  facet normal -0.248689 0.968583 0
    outer loop
      vertex 90.927 -2.85317 -10
      vertex 90.5621 -2.94686 10
      vertex 90.927 -2.85317 10
    endloop
  endfacet
  facet normal -0.248689 0.968583 0
    outer loop
      vertex 90.5621 -2.94686 10
      vertex 90.927 -2.85317 -10
      vertex 90.5621 -2.94686 -10
    endloop
  endfacet
  facet normal 0 -1 0
    outer loop
      vertex 89.8116 2.99408 -10
      vertex 90 2.99408 10
      vertex 89.8116 2.99408 10
    endloop
  endfacet
  facet normal 0 -1 -0
    outer loop
      vertex 90 2.99408 10
      vertex 89.8116 2.99408 -10
      vertex 90 2.99408 -10
    endloop
  endfacet
  facet normal 0.998026 -0.0627981 0
    outer loop
      vertex 87 0 10
      vertex 87.0237 0.375999 -10
      vertex 87.0237 0.375999 10
    endloop
  endfacet
  facet normal 0.998026 -0.0627981 0
    outer loop
      vertex 87.0237 0.375999 -10
      vertex 87 0 10
      vertex 87 0 -10
    endloop
  endfacet
  facet normal 0.982287 -0.187382 0
    outer loop
      vertex 87.0237 0.375999 10
      vertex 87.0943 0.746069 -10
      vertex 87.0943 0.746069 10
    endloop
  endfacet
  facet normal 0.982287 -0.187382 0
    outer loop
      vertex 87.0943 0.746069 -10
      vertex 87.0237 0.375999 10
      vertex 87.0237 0.375999 -10
    endloop
  endfacet
  facet normal 0.844322 -0.535836 0
    outer loop
      vertex 87.3711 1.44526 10
      vertex 87.573 1.76336 -10
      vertex 87.573 1.76336 10
    endloop
  endfacet
  facet normal 0.844322 -0.535836 0
    outer loop
      vertex 87.573 1.76336 -10
      vertex 87.3711 1.44526 10
      vertex 87.3711 1.44526 -10
    endloop
  endfacet
  facet normal 0.125333 -0.992115 0
    outer loop
      vertex 89.4379 2.94686 -10
      vertex 89.8116 2.99408 10
      vertex 89.4379 2.94686 10
    endloop
  endfacet
  facet normal 0.125333 -0.992115 0
    outer loop
      vertex 89.8116 2.99408 10
      vertex 89.4379 2.94686 -10
      vertex 89.8116 2.99408 -10
    endloop
  endfacet
  facet normal 0.248689 -0.968583 0
    outer loop
      vertex 89.073 2.85317 -10
      vertex 89.4379 2.94686 10
      vertex 89.073 2.85317 10
    endloop
  endfacet
  facet normal 0.248689 -0.968583 0
    outer loop
      vertex 89.4379 2.94686 10
      vertex 89.073 2.85317 -10
      vertex 89.4379 2.94686 -10
    endloop
  endfacet
  facet normal 0.481749 -0.876309 0
    outer loop
      vertex 88.3925 2.53298 -10
      vertex 88.7227 2.71448 10
      vertex 88.3925 2.53298 10
    endloop
  endfacet
  facet normal 0.481749 -0.876309 0
    outer loop
      vertex 88.7227 2.71448 10
      vertex 88.3925 2.53298 -10
      vertex 88.7227 2.71448 -10
    endloop
  endfacet
  facet normal 0.58779 -0.809014 0
    outer loop
      vertex 88.0877 2.31154 -10
      vertex 88.3925 2.53298 10
      vertex 88.0877 2.31154 10
    endloop
  endfacet
  facet normal 0.58779 -0.809014 0
    outer loop
      vertex 88.3925 2.53298 10
      vertex 88.0877 2.31154 -10
      vertex 88.3925 2.53298 -10
    endloop
  endfacet
  facet normal -0.982287 0.187382 0
    outer loop
      vertex 92.9057 -0.746069 -10
      vertex 92.9763 -0.375999 10
      vertex 92.9763 -0.375999 -10
    endloop
  endfacet
  facet normal -0.982287 0.187382 0
    outer loop
      vertex 92.9763 -0.375999 10
      vertex 92.9057 -0.746069 -10
      vertex 92.9057 -0.746069 10
    endloop
  endfacet
  facet normal -0.125333 0.992115 0
    outer loop
      vertex 90.5621 -2.94686 -10
      vertex 90.1884 -2.99408 10
      vertex 90.5621 -2.94686 10
    endloop
  endfacet
  facet normal -0.125333 0.992115 0
    outer loop
      vertex 90.1884 -2.99408 10
      vertex 90.5621 -2.94686 -10
      vertex 90.1884 -2.99408 -10
    endloop
  endfacet
  facet normal -0.481749 0.876309 0
    outer loop
      vertex 91.6075 -2.53298 -10
      vertex 91.2773 -2.71448 10
      vertex 91.6075 -2.53298 10
    endloop
  endfacet
  facet normal -0.481749 0.876309 0
    outer loop
      vertex 91.2773 -2.71448 10
      vertex 91.6075 -2.53298 -10
      vertex 91.2773 -2.71448 -10
    endloop
  endfacet
  facet normal -0.684546 0.728969 0
    outer loop
      vertex 92.1869 -2.05364 -10
      vertex 91.9123 -2.31154 10
      vertex 92.1869 -2.05364 10
    endloop
  endfacet
  facet normal -0.684546 0.728969 0
    outer loop
      vertex 91.9123 -2.31154 10
      vertex 92.1869 -2.05364 -10
      vertex 91.9123 -2.31154 -10
    endloop
  endfacet
  facet normal -0.770516 0.637421 0
    outer loop
      vertex 92.1869 -2.05364 -10
      vertex 92.427 -1.76336 10
      vertex 92.427 -1.76336 -10
    endloop
  endfacet
  facet normal -0.770516 0.637421 0
    outer loop
      vertex 92.427 -1.76336 10
      vertex 92.1869 -2.05364 -10
      vertex 92.1869 -2.05364 10
    endloop
  endfacet
  facet normal 0.125333 0.992115 -0
    outer loop
      vertex 89.8116 -2.99408 -10
      vertex 89.4379 -2.94686 10
      vertex 89.8116 -2.99408 10
    endloop
  endfacet
  facet normal 0.125333 0.992115 0
    outer loop
      vertex 89.4379 -2.94686 10
      vertex 89.8116 -2.99408 -10
      vertex 89.4379 -2.94686 -10
    endloop
  endfacet
  facet normal 0.998026 0.0627981 0
    outer loop
      vertex 87.0237 -0.375999 10
      vertex 87 0 -10
      vertex 87 0 10
    endloop
  endfacet
  facet normal 0.998026 0.0627981 0
    outer loop
      vertex 87 0 -10
      vertex 87.0237 -0.375999 10
      vertex 87.0237 -0.375999 -10
    endloop
  endfacet
  facet normal 0.904829 0.425776 0
    outer loop
      vertex 87.3711 -1.44526 10
      vertex 87.2107 -1.10437 -10
      vertex 87.2107 -1.10437 10
    endloop
  endfacet
  facet normal 0.904829 0.425776 0
    outer loop
      vertex 87.2107 -1.10437 -10
      vertex 87.3711 -1.44526 10
      vertex 87.3711 -1.44526 -10
    endloop
  endfacet
  facet normal 0.951059 0.30901 0
    outer loop
      vertex 87.2107 -1.10437 10
      vertex 87.0943 -0.746069 -10
      vertex 87.0943 -0.746069 10
    endloop
  endfacet
  facet normal 0.951059 0.30901 0
    outer loop
      vertex 87.0943 -0.746069 -10
      vertex 87.2107 -1.10437 10
      vertex 87.2107 -1.10437 -10
    endloop
  endfacet
  facet normal 0.684546 0.728969 -0
    outer loop
      vertex 88.0877 -2.31154 -10
      vertex 87.8131 -2.05364 10
      vertex 88.0877 -2.31154 10
    endloop
  endfacet
  facet normal 0.684546 0.728969 0
    outer loop
      vertex 87.8131 -2.05364 10
      vertex 88.0877 -2.31154 -10
      vertex 87.8131 -2.05364 -10
    endloop
  endfacet
  facet normal -0.951059 0.30901 0
    outer loop
      vertex 92.7893 -1.10437 -10
      vertex 92.9057 -0.746069 10
      vertex 92.9057 -0.746069 -10
    endloop
  endfacet
  facet normal -0.951059 0.30901 0
    outer loop
      vertex 92.9057 -0.746069 10
      vertex 92.7893 -1.10437 -10
      vertex 92.7893 -1.10437 10
    endloop
  endfacet
  facet normal -0.904829 0.425776 0
    outer loop
      vertex 92.6289 -1.44526 -10
      vertex 92.7893 -1.10437 10
      vertex 92.7893 -1.10437 -10
    endloop
  endfacet
  facet normal -0.904829 0.425776 0
    outer loop
      vertex 92.7893 -1.10437 10
      vertex 92.6289 -1.44526 -10
      vertex 92.6289 -1.44526 10
    endloop
  endfacet
  facet normal -0.58779 0.809014 0
    outer loop
      vertex 91.9123 -2.31154 -10
      vertex 91.6075 -2.53298 10
      vertex 91.9123 -2.31154 10
    endloop
  endfacet
  facet normal -0.58779 0.809014 0
    outer loop
      vertex 91.6075 -2.53298 10
      vertex 91.9123 -2.31154 -10
      vertex 91.6075 -2.53298 -10
    endloop
  endfacet
  facet normal -0.844322 0.535836 0
    outer loop
      vertex 92.427 -1.76336 -10
      vertex 92.6289 -1.44526 10
      vertex 92.6289 -1.44526 -10
    endloop
  endfacet
  facet normal -0.844322 0.535836 0
    outer loop
      vertex 92.6289 -1.44526 10
      vertex 92.427 -1.76336 -10
      vertex 92.427 -1.76336 10
    endloop
  endfacet
  facet normal 0.58779 0.809014 -0
    outer loop
      vertex 88.3925 -2.53298 -10
      vertex 88.0877 -2.31154 10
      vertex 88.3925 -2.53298 10
    endloop
  endfacet
  facet normal 0.58779 0.809014 0
    outer loop
      vertex 88.0877 -2.31154 10
      vertex 88.3925 -2.53298 -10
      vertex 88.0877 -2.31154 -10
    endloop
  endfacet
  facet normal 0 1 -0
    outer loop
      vertex 90.1884 -2.99408 -10
      vertex 89.8116 -2.99408 10
      vertex 90.1884 -2.99408 10
    endloop
  endfacet
  facet normal 0 1 0
    outer loop
      vertex 89.8116 -2.99408 10
      vertex 90.1884 -2.99408 -10
      vertex 89.8116 -2.99408 -10
    endloop
  endfacet
  facet normal 0.982287 0.187382 0
    outer loop
      vertex 87.0943 -0.746069 10
      vertex 87.0237 -0.375999 -10
      vertex 87.0237 -0.375999 10
    endloop
  endfacet
  facet normal 0.982287 0.187382 0
    outer loop
      vertex 87.0237 -0.375999 -10
      vertex 87.0943 -0.746069 10
      vertex 87.0943 -0.746069 -10
    endloop
  endfacet
  facet normal 0.844322 0.535836 0
    outer loop
      vertex 87.573 -1.76336 10
      vertex 87.3711 -1.44526 -10
      vertex 87.3711 -1.44526 10
    endloop
  endfacet
  facet normal 0.844322 0.535836 0
    outer loop
      vertex 87.3711 -1.44526 -10
      vertex 87.573 -1.76336 10
      vertex 87.573 -1.76336 -10
    endloop
  endfacet
  facet normal 0.481749 0.876309 -0
    outer loop
      vertex 88.7227 -2.71448 -10
      vertex 88.3925 -2.53298 10
      vertex 88.7227 -2.71448 10
    endloop
  endfacet
  facet normal 0.481749 0.876309 0
    outer loop
      vertex 88.3925 -2.53298 10
      vertex 88.7227 -2.71448 -10
      vertex 88.3925 -2.53298 -10
    endloop
  endfacet
  facet normal 0.368125 0.929776 -0
    outer loop
      vertex 89.073 -2.85317 -10
      vertex 88.7227 -2.71448 10
      vertex 89.073 -2.85317 10
    endloop
  endfacet
  facet normal 0.368125 0.929776 0
    outer loop
      vertex 88.7227 -2.71448 10
      vertex 89.073 -2.85317 -10
      vertex 88.7227 -2.71448 -10
    endloop
  endfacet
  facet normal 0.770516 0.637421 0
    outer loop
      vertex 87.8131 -2.05364 10
      vertex 87.573 -1.76336 -10
      vertex 87.573 -1.76336 10
    endloop
  endfacet
  facet normal 0.770516 0.637421 0
    outer loop
      vertex 87.573 -1.76336 -10
      vertex 87.8131 -2.05364 10
      vertex 87.8131 -2.05364 -10
    endloop
  endfacet
  facet normal 0 1 -0
    outer loop
      vertex 97.5 0 -10
      vertex 93 0 10
      vertex 97.5 0 10
    endloop
  endfacet
  facet normal 0 1 0
    outer loop
      vertex 93 0 10
      vertex 97.5 0 -10
      vertex 93 0 -10
    endloop
  endfacet
  facet normal 1 -0 0
    outer loop
      vertex 90 2.99408 10
      vertex 90 7.5 -10
      vertex 90 7.5 10
    endloop
  endfacet
  facet normal 1 0 0
    outer loop
      vertex 90 7.5 -10
      vertex 90 2.99408 10
      vertex 90 2.99408 -10
    endloop
  endfacet
endsolid OpenSCAD_Model
